<svg width="19" height="21" viewBox="0 0 19 21" fill="none" xmlns="http://www.w3.org/2000/svg">
<path d="M9.37186 20.3512H9.19813C8.94496 20.2813 8.69005 20.2165 8.43882 20.1404C6.5706 19.5734 4.96057 18.5704 3.56331 17.2201C2.2797 15.9795 1.3167 14.5212 0.677592 12.8536C0.269432 11.7888 0.0222559 10.6854 0.0120132 9.5429C-0.00441369 7.71198 0.00505593 5.88087 0.00370313 4.04975C0.00350987 3.74885 0.0868039 3.62787 0.365481 3.51636C3.24927 2.36319 6.13287 1.21022 9.01588 0.055502C9.19619 -0.0167764 9.36761 -0.0169696 9.5485 0.055502C12.4518 1.21891 15.3559 2.38 18.2598 3.54187C18.4712 3.62652 18.5605 3.75928 18.5605 3.98578C18.5605 5.66558 18.5642 7.34557 18.558 9.02536C18.5564 9.44299 18.5423 9.86217 18.5025 10.2777C18.3852 11.5033 18.025 12.6625 17.4937 13.7689C16.78 15.2554 15.7921 16.5377 14.5593 17.6292C13.2038 18.8293 11.6643 19.7038 9.91782 20.2016C9.73635 20.2534 9.55391 20.3014 9.37186 20.3512ZM1.9902 7.24275C1.9902 7.82832 1.99116 8.41389 1.99 8.99946C1.98846 9.66755 2.05146 10.3297 2.19273 10.9823C2.63935 13.044 3.63791 14.7893 5.20929 16.2012C6.37096 17.245 7.71159 17.9583 9.2219 18.3533C9.25746 18.3626 9.29959 18.3649 9.33476 18.3556C9.95763 18.1923 10.5604 17.9736 11.1402 17.6928C12.332 17.1157 13.3611 16.3245 14.2209 15.3198C15.7246 13.5629 16.5253 11.5265 16.5663 9.21127C16.5925 7.73169 16.5723 6.25134 16.5752 4.77118C16.5752 4.70509 16.5535 4.67494 16.493 4.65233C14.1237 3.76508 11.7545 2.87687 9.38636 1.98672C9.31234 1.9589 9.24915 1.96006 9.1759 1.9875C6.81043 2.8761 4.44438 3.76334 2.07774 4.64866C2.00817 4.67474 1.98846 4.70914 1.98865 4.78104C1.99116 5.60161 1.9902 6.42199 1.9902 7.24256V7.24275Z" fill="white"/>
<path d="M8.25793 9.93483C7.30555 9.57324 6.64655 8.93511 6.30854 7.98853C6.06503 7.30691 6.05595 6.61447 6.2867 5.92551C6.72327 4.62179 8.02467 3.67077 9.56222 3.78537C10.9121 3.88606 12.1229 4.97198 12.3822 6.31666C12.6814 7.86736 11.8106 9.40724 10.2991 9.93657C10.4363 9.96807 10.5548 9.99416 10.6727 10.0224C11.559 10.2346 12.3948 10.5639 13.1334 11.1083C13.5571 11.4206 13.9078 11.7986 14.0881 12.3044C14.1492 12.4752 14.1859 12.658 14.2077 12.8383C14.2186 12.927 14.1907 13.0349 14.1453 13.1135C13.2478 14.6642 11.9196 15.6222 10.1526 15.9229C8.42104 16.2176 6.9059 15.709 5.58769 14.5736C5.14513 14.1925 4.79185 13.7364 4.48477 13.2407C4.36417 13.0463 4.33673 12.8524 4.37983 12.6335C4.47472 12.1515 4.719 11.7565 5.06628 11.4192C5.65398 10.8484 6.37193 10.5009 7.13549 10.2417C7.46905 10.1285 7.81576 10.0537 8.15666 9.96131C8.18391 9.95396 8.21135 9.947 8.25812 9.93464L8.25793 9.93483ZM6.18853 12.7313C6.35241 12.905 6.4989 13.0863 6.67109 13.2384C7.67777 14.1274 8.83287 14.4849 10.1604 14.173C11.0405 13.9662 11.7528 13.4912 12.3144 12.785C12.3592 12.7286 12.3575 12.6932 12.3044 12.6503C12.2319 12.5917 12.1648 12.5264 12.0898 12.4715C11.6196 12.1262 11.0866 11.9165 10.531 11.7569C10.0144 11.6086 9.48879 11.5101 8.95153 11.5723C8.20498 11.6589 7.49495 11.8773 6.83343 12.2398C6.6021 12.3666 6.37888 12.5065 6.18833 12.7315L6.18853 12.7313ZM7.84107 6.91962C7.84416 7.7487 8.47766 8.38374 9.30017 8.38201C10.0774 8.38027 10.728 7.72416 10.7262 6.94359C10.7243 6.14022 10.0724 5.48333 9.28393 5.49068C8.48385 5.49802 7.83837 6.13732 7.84107 6.91962Z" fill="white"/>
</svg>
