<svg width="36" height="40" viewBox="0 0 36 40" fill="none" xmlns="http://www.w3.org/2000/svg">
<path d="M17.9566 39.28H17.6236C17.1385 39.146 16.6499 39.0219 16.1685 38.876C12.5881 37.7893 9.50253 35.8671 6.82475 33.2793C4.36474 30.9019 2.51919 28.1071 1.29437 24.9111C0.512146 22.8704 0.0384415 20.7559 0.0188119 18.5663C-0.0126696 15.0574 0.00547853 11.5481 0.00288593 8.03888C0.00251556 7.46221 0.162145 7.23036 0.69622 7.01666C6.22289 4.80665 11.7492 2.59702 17.2744 0.384057C17.6199 0.245539 17.9485 0.245168 18.2951 0.384057C23.8592 2.61369 29.4248 4.83888 34.99 7.06555C35.3951 7.22777 35.5663 7.48221 35.5663 7.91629C35.5663 11.1356 35.5733 14.3552 35.5614 17.5744C35.5585 18.3748 35.5314 19.1782 35.4551 19.9745C35.2303 22.3233 34.54 24.5448 33.5218 26.6652C32.154 29.5141 30.2607 31.9715 27.8981 34.0634C25.3003 36.3634 22.3499 38.0393 19.0029 38.9934C18.6551 39.0926 18.3055 39.1845 17.9566 39.28ZM3.80993 14.1581C3.80993 15.2804 3.81178 16.4026 3.80956 17.5248C3.80659 18.8052 3.92733 20.0741 4.19808 21.3248C5.054 25.2759 6.96771 28.6208 9.97919 31.3267C12.2055 33.3271 14.7748 34.6941 17.6692 35.4511C17.7374 35.4689 17.8181 35.4734 17.8855 35.4556C19.0792 35.1426 20.2344 34.7234 21.3455 34.1852C23.6296 33.0793 25.6018 31.563 27.2496 29.6374C30.1314 26.2704 31.6659 22.3678 31.7444 17.9307C31.7948 15.0952 31.7559 12.2581 31.7614 9.42147C31.7614 9.29481 31.72 9.23703 31.604 9.1937C27.0633 7.49332 22.5229 5.7911 17.9844 4.08517C17.8425 4.03184 17.7214 4.03406 17.5811 4.08665C13.0477 5.78962 8.51327 7.48999 3.97771 9.18666C3.84437 9.23666 3.80659 9.30259 3.80696 9.44036C3.81178 11.013 3.80993 12.5852 3.80993 14.1578V14.1581Z" fill="#06355A"/>
<path d="M15.8218 19.3174C13.9966 18.6244 12.7336 17.4015 12.0859 15.5874C11.6192 14.2811 11.6018 12.9541 12.044 11.6337C12.8807 9.13518 15.3748 7.31258 18.3214 7.53221C20.9085 7.72518 23.2288 9.80629 23.7259 12.3833C24.2992 15.3552 22.6303 18.3063 19.7336 19.3207C19.9966 19.3811 20.2236 19.4311 20.4496 19.4852C22.1481 19.8919 23.7499 20.523 25.1655 21.5663C25.9774 22.1648 26.6496 22.8893 26.9951 23.8585C27.1122 24.1859 27.1825 24.5363 27.2244 24.8819C27.2451 25.0519 27.1918 25.2585 27.1048 25.4093C25.3848 28.3811 22.8392 30.2171 19.4529 30.7933C16.1344 31.3582 13.2307 30.3833 10.7044 28.2074C9.85623 27.477 9.17919 26.603 8.59067 25.653C8.35956 25.2804 8.30697 24.9089 8.38956 24.4893C8.57141 23.5656 9.03956 22.8085 9.70512 22.1622C10.8314 21.0682 12.2073 20.4022 13.6707 19.9056C14.3099 19.6885 14.9744 19.5452 15.6277 19.3682C15.6799 19.3541 15.7325 19.3407 15.8222 19.317L15.8218 19.3174ZM11.8559 24.6767C12.1699 25.0096 12.4507 25.357 12.7807 25.6485C14.7099 27.3522 16.9236 28.0374 19.4677 27.4396C21.1544 27.0433 22.5196 26.133 23.5959 24.7796C23.6818 24.6715 23.6785 24.6037 23.5766 24.5215C23.4377 24.4093 23.3092 24.2841 23.1655 24.1789C22.2644 23.517 21.2429 23.1152 20.1781 22.8093C19.1881 22.5252 18.1807 22.3363 17.1511 22.4556C15.7203 22.6215 14.3596 23.04 13.0918 23.7348C12.6485 23.9778 12.2207 24.2459 11.8555 24.677L11.8559 24.6767ZM15.0229 13.5389C15.0288 15.1278 16.2429 16.3448 17.8192 16.3415C19.3088 16.3381 20.5555 15.0807 20.5522 13.5848C20.5485 12.0452 19.2992 10.7863 17.7881 10.8004C16.2548 10.8144 15.0177 12.0396 15.0229 13.5389Z" fill="#06355A"/>
</svg>
