<svg width="34" height="26" viewBox="0 0 34 26" fill="none" xmlns="http://www.w3.org/2000/svg">
<path d="M2.42857 0.857143H14.5714C15.2155 0.857143 15.8332 1.11301 16.2887 1.56846C16.7441 2.0239 17 2.64162 17 3.28571C17 3.92981 16.7441 4.54753 16.2887 5.00297C15.8332 5.45842 15.2155 5.71429 14.5714 5.71429H2.42857C1.78447 5.71429 1.16676 5.45842 0.711312 5.00297C0.255867 4.54753 0 3.92981 0 3.28571C0 2.64162 0.255867 2.0239 0.711312 1.56846C1.16676 1.11301 1.78447 0.857143 2.42857 0.857143ZM19.4286 20.2857H31.5714C32.2155 20.2857 32.8332 20.5416 33.2887 20.997C33.7441 21.4525 34 22.0702 34 22.7143C34 23.3584 33.7441 23.9761 33.2887 24.4315C32.8332 24.887 32.2155 25.1429 31.5714 25.1429H19.4286C18.7845 25.1429 18.1668 24.887 17.7113 24.4315C17.2559 23.9761 17 23.3584 17 22.7143C17 22.0702 17.2559 21.4525 17.7113 20.997C18.1668 20.5416 18.7845 20.2857 19.4286 20.2857ZM2.42857 10.5714H31.5714C32.2155 10.5714 32.8332 10.8273 33.2887 11.2827C33.7441 11.7382 34 12.3559 34 13C34 13.6441 33.7441 14.2618 33.2887 14.7173C32.8332 15.1727 32.2155 15.4286 31.5714 15.4286H2.42857C1.78447 15.4286 1.16676 15.1727 0.711312 14.7173C0.255867 14.2618 0 13.6441 0 13C0 12.3559 0.255867 11.7382 0.711312 11.2827C1.16676 10.8273 1.78447 10.5714 2.42857 10.5714Z" fill="#06355A"/>
</svg>
