<svg width="39" height="38" viewBox="0 0 39 38" fill="none" xmlns="http://www.w3.org/2000/svg">
<path d="M34.2569 17.1649L34.2554 17.1664C32.9551 18.4707 31.2968 19.3598 29.4907 19.721C27.6847 20.0822 25.8121 19.8993 24.11 19.1954L23.1449 18.7963L22.4778 19.6001L9.74547 34.9449C7.95778 36.6862 5.10863 36.6719 3.33849 34.9016C1.56473 33.1279 1.55836 30.2809 3.29284 28.5203L18.641 15.7615L19.4425 15.0953L19.0452 14.1316C17.65 10.7459 18.3288 6.72965 21.0753 3.98314C23.079 1.97937 25.7575 1.09672 28.3822 1.31155L23.393 6.30079L22.3907 7.30296L23.393 8.30515L30.0531 14.9653L31.0571 15.9692L32.0592 14.9635L36.9392 10.0665C37.0941 12.6216 36.2054 15.2164 34.2569 17.1649ZM3.85261 34.3703L3.86319 34.3811L3.87398 34.3915C5.36205 35.8425 7.76141 35.8605 9.24287 34.3788C10.7297 32.892 10.7523 30.4826 9.24294 28.9972C7.75764 27.4877 5.34811 27.5104 3.86122 28.9972L3.85261 29.0059C3.14927 29.7215 2.75516 30.6848 2.75516 31.688C2.75516 32.6914 3.14927 33.6547 3.85261 34.3703Z" stroke="#06355A" stroke-width="2.53"/>
</svg>
