<svg width="21" height="21" viewBox="0 0 21 21" fill="none" xmlns="http://www.w3.org/2000/svg">
<path d="M18.2182 9.37444L18.2174 9.37525C17.5172 10.0776 16.6243 10.5563 15.6518 10.7508C14.6793 10.9453 13.671 10.8468 12.7545 10.4678L12.2348 10.2529L11.8756 10.6857L5.01973 18.9483C4.05713 19.8859 2.52297 19.8782 1.56982 18.925C0.614714 17.9699 0.611284 16.4369 1.54524 15.4889L9.80961 8.61879L10.2412 8.26003L10.0273 7.74115C9.27602 5.91808 9.6415 3.75547 11.1204 2.27658C12.1993 1.19763 13.6416 0.722356 15.0549 0.838031L12.3684 3.52455L11.8287 4.06418L12.3684 4.60382L15.9546 8.19005L16.4952 8.73062L17.0348 8.18911L19.6625 5.55223C19.7459 6.92805 19.2674 8.32528 18.2182 9.37444ZM1.84665 18.6389L1.85235 18.6447L1.85816 18.6503C2.65943 19.4316 3.95139 19.4413 4.7491 18.6435C5.54972 17.8429 5.56188 16.5455 4.74914 15.7457C3.94936 14.9329 2.65192 14.9451 1.85129 15.7457L1.85127 15.7457L1.84665 15.7504C1.46793 16.1357 1.25572 16.6544 1.25572 17.1946C1.25572 17.7349 1.46793 18.2536 1.84665 18.6389Z" stroke="white" stroke-width="1.52631"/>
</svg>
