<svg width="16" height="17" viewBox="0 0 16 17" fill="none" xmlns="http://www.w3.org/2000/svg">
<path fill-rule="evenodd" clip-rule="evenodd" d="M8 2.57205C6.87174 2.57179 5.76346 2.86981 4.78748 3.4359C3.8115 4.00199 3.00253 4.81603 2.44253 5.79551C1.88253 6.775 1.59143 7.88512 1.59871 9.01336C1.60599 10.1416 1.91141 11.2479 2.48401 12.22L2.93921 12.7944L2.38161 14.6816L4.23761 14.1632L4.5408 14.3576C5.37755 14.8948 6.32797 15.2297 7.31667 15.3356C8.30536 15.4415 9.30514 15.3156 10.2367 14.9679C11.1683 14.6201 12.006 14.0601 12.6834 13.3322C13.3608 12.6043 13.8594 11.7286 14.1394 10.7745C14.4194 9.82037 14.4733 8.81413 14.2967 7.83558C14.1202 6.85703 13.718 5.93308 13.1222 5.13702C12.5263 4.34095 11.7532 3.69468 10.8641 3.24945C9.97498 2.80422 8.99436 2.57229 8 2.57205ZM7.38967e-06 8.97204C7.38967e-06 4.55364 3.58161 0.972046 8 0.972046C12.4184 0.972046 16 4.55364 16 8.97204C16 13.3904 12.4184 16.972 8 16.972C6.59064 16.974 5.20596 16.6022 3.98721 15.8944L0.0288074 17L1.16961 13.1368L1.16481 13.1312L1.13841 13.0872C0.391632 11.8446 -0.00196674 10.4218 7.38967e-06 8.97204Z" fill="white"/>
<path d="M11.788 10.1656C11.7576 10.1512 10.5904 9.57684 10.3832 9.50164C10.2967 9.46589 10.2047 9.44558 10.1112 9.44164C9.9544 9.44164 9.8216 9.52004 9.7192 9.67444C9.6024 9.84804 9.2496 10.26 9.1408 10.3832C9.1264 10.3992 9.1072 10.4192 9.0952 10.4192C9.0848 10.4192 8.904 10.3448 8.8496 10.3208C7.5984 9.77684 6.6488 8.47044 6.5184 8.24964C6.5 8.21764 6.4992 8.20404 6.4992 8.20404C6.5032 8.18724 6.5456 8.14484 6.5672 8.12324C6.6312 8.06004 6.7 7.97764 6.7664 7.89684L6.86 7.78484C6.9568 7.67284 7 7.58484 7.0496 7.48484L7.076 7.43204C7.11558 7.35195 7.13483 7.26334 7.13204 7.17404C7.12925 7.08474 7.10451 6.99751 7.06 6.92004C7.0328 6.86484 6.54 5.67604 6.488 5.55124C6.3616 5.24964 6.1952 5.10964 5.964 5.10964C5.9424 5.10964 5.964 5.10964 5.8744 5.11364C5.7648 5.11764 5.168 5.19684 4.90401 5.36244C4.624 5.53844 4.15201 6.10164 4.15201 7.09044C4.15201 7.98004 4.716 8.82004 4.9584 9.13924L4.9912 9.18724C5.92 10.5432 7.0776 11.548 8.2504 12.0168C9.38 12.468 9.9152 12.5208 10.2192 12.5208C10.3472 12.5208 10.4496 12.5104 10.5392 12.5016L10.5968 12.496C10.9872 12.4616 11.8448 12.0168 12.04 11.4752C12.1936 11.048 12.2344 10.5816 12.132 10.412C12.0616 10.2968 11.9408 10.2392 11.788 10.1656Z" fill="white"/>
</svg>
