<svg width="46" height="39" viewBox="0 0 46 39" fill="none" xmlns="http://www.w3.org/2000/svg">
<path fill-rule="evenodd" clip-rule="evenodd" d="M6.3259 16.8373L9.79881 18.4426L8.80554 28.933C8.6717 30.3338 9.10376 31.7842 10.0266 32.6395C12.7434 35.1653 17.172 38.2799 22.7535 38.2799C27.3939 38.2989 31.9101 36.3015 35.6049 32.5962C36.462 31.7284 36.8306 30.3431 36.7085 29.026L35.7059 18.4426L44.0888 14.5687C45.9743 13.701 45.9743 10.1773 44.0888 9.30648L26.2429 1.06289C23.9831 0.0190749 21.5216 0.0190749 19.2618 1.06289L1.41593 9.30648C-0.471977 10.1742 -0.471977 13.6979 1.41593 14.5718L3.88148 15.7092C3.55744 16.267 3.32967 16.8404 3.17 17.3672C3.06088 17.7244 2.97295 18.0922 2.907 18.4674C2.54604 18.7078 2.23824 19.0672 2.01338 19.5106C1.78853 19.9541 1.65425 20.4667 1.62355 20.9988C1.59285 21.5309 1.66676 22.0644 1.83813 22.5477C2.00951 23.031 2.27253 23.4478 2.60174 23.7575L2.59 23.8102L0.535377 36.0176C0.489661 36.2894 0.490794 36.5714 0.538692 36.8425C0.586589 37.1138 0.680029 37.3673 0.81211 37.5845C0.944192 37.8016 1.11154 37.9768 1.30181 38.0972C1.49207 38.2176 1.7004 38.28 1.91139 38.2799H6.02064C6.23164 38.28 6.43996 38.2176 6.63022 38.0972C6.82049 37.9768 6.98784 37.8016 7.11992 37.5845C7.252 37.3673 7.34544 37.1138 7.39334 36.8425C7.44124 36.5714 7.44237 36.2894 7.39666 36.0176L5.34203 23.8071L5.33264 23.7544C5.63906 23.4653 5.88827 23.083 6.05923 22.64C6.23019 22.1969 6.31787 21.7061 6.31488 21.2089C6.31188 20.7118 6.2183 20.2228 6.04203 19.7834C5.86576 19.344 5.61198 18.9671 5.30211 18.6843C5.50092 17.951 5.85653 17.3094 6.3259 16.8373ZM25.4656 3.98534C23.7082 3.17372 21.7941 3.17372 20.0367 3.98534L3.45882 11.6463C3.41349 11.668 3.37432 11.7076 3.34664 11.7597C3.31896 11.8119 3.30412 11.874 3.30412 11.9376C3.30412 12.0013 3.31896 12.0634 3.34664 12.1155C3.37432 12.1676 3.41349 12.2072 3.45882 12.2289L6.11457 13.4593C6.91294 13.0285 8.20442 12.5791 9.60626 12.1483C11.4609 11.5901 13.3233 11.0776 15.1925 10.6112C17.6428 9.99092 20.0983 9.40722 22.5586 8.86021C22.8611 8.80611 23.1677 8.90963 23.4133 9.14882C23.659 9.38801 23.8244 9.74406 23.8744 10.1415C23.9245 10.5389 23.8554 10.9464 23.6816 11.2777C23.5079 11.6089 23.2432 11.8379 22.9437 11.9159C22.2017 12.0812 21.4597 12.2496 20.7177 12.4211C19.3628 12.7372 17.5359 13.171 15.6363 13.6514C13.7366 14.1318 11.7689 14.6648 10.1416 15.1669L9.94439 15.2288L20.0367 19.8899C21.7941 20.7015 23.7082 20.7015 25.4656 19.8899L42.0459 12.2289C42.0912 12.2072 42.1304 12.1676 42.1581 12.1155C42.1857 12.0634 42.2006 12.0013 42.2006 11.9376C42.2006 11.874 42.1857 11.8119 42.1581 11.7597C42.1304 11.7076 42.0912 11.668 42.0459 11.6463L25.4656 3.98534ZM26.2405 22.8123L33.4376 19.4901L34.3768 29.4103C34.3948 29.5452 34.3853 29.6839 34.3495 29.8124C34.3136 29.9408 34.2525 30.0545 34.1726 30.1417C30.8876 33.4301 26.8741 35.2008 22.7512 35.1808C17.8412 35.1808 13.8822 32.435 11.3768 30.1045C11.2869 30.0137 11.2171 29.8928 11.1745 29.7544C11.132 29.616 11.1183 29.4651 11.1349 29.3173L12.0648 19.4901L19.2618 22.8123C21.5216 23.8561 23.9831 23.8561 26.2429 22.8123M3.08546 35.1808L3.96602 29.9278L4.85127 35.1808H3.08546Z" fill="#06355A"/>
</svg>
