<svg width="26" height="22" viewBox="0 0 26 22" fill="none" xmlns="http://www.w3.org/2000/svg">
<path fill-rule="evenodd" clip-rule="evenodd" d="M4.13635 9.73852L5.99626 10.5982L5.46432 16.2164C5.39264 16.9666 5.62402 17.7433 6.11824 18.2014C7.57321 19.554 9.94494 21.222 12.9341 21.222C15.4193 21.2322 17.8379 20.1625 19.8166 18.1781C20.2756 17.7134 20.4731 16.9715 20.4077 16.2662L19.8707 10.5982L24.3601 8.52361C25.3699 8.05889 25.3699 6.1718 24.3601 5.70543L14.8028 1.2906C13.5926 0.731585 12.2744 0.731585 11.0641 1.2906L1.50683 5.70543C0.495769 6.17014 0.495769 8.05723 1.50683 8.52527L2.82725 9.13439C2.65371 9.43313 2.53173 9.74018 2.44622 10.0223C2.38778 10.2136 2.34069 10.4106 2.30537 10.6115C2.11206 10.7403 1.94722 10.9327 1.8268 11.1702C1.70638 11.4077 1.63446 11.6823 1.61802 11.9672C1.60158 12.2522 1.64116 12.5379 1.73294 12.7967C1.82472 13.0556 1.96558 13.2787 2.14189 13.4447L2.1356 13.4729L1.03525 20.0105C1.01077 20.1561 1.01138 20.307 1.03703 20.4523C1.06268 20.5975 1.11272 20.7333 1.18346 20.8496C1.25419 20.9659 1.34382 21.0598 1.44572 21.1242C1.54761 21.1887 1.65918 21.2221 1.77217 21.222H3.97287C4.08587 21.2221 4.19743 21.1887 4.29933 21.1242C4.40123 21.0598 4.49085 20.9659 4.56159 20.8496C4.63232 20.7333 4.68236 20.5975 4.70802 20.4523C4.73367 20.307 4.73427 20.1561 4.70979 20.0105L3.60944 13.4712L3.60441 13.443C3.76852 13.2881 3.90198 13.0834 3.99354 12.8461C4.08509 12.6089 4.13205 12.346 4.13045 12.0797C4.12885 11.8135 4.07873 11.5516 3.98433 11.3163C3.88993 11.081 3.75401 10.8791 3.58806 10.7277C3.69454 10.335 3.88498 9.99137 4.13635 9.73852ZM14.3866 2.8557C13.4454 2.42104 12.4203 2.42104 11.4791 2.8557L2.60089 6.95851C2.57662 6.97014 2.55564 6.99135 2.54082 7.01926C2.526 7.04717 2.51804 7.08043 2.51804 7.11452C2.51804 7.1486 2.526 7.18186 2.54082 7.20978C2.55564 7.23769 2.57662 7.2589 2.60089 7.27053L4.02317 7.92944C4.45074 7.69874 5.14239 7.45808 5.89314 7.22738C6.88639 6.92839 7.8838 6.65394 8.88483 6.40416C10.1971 6.07198 11.5121 5.75938 12.8297 5.46643C12.9917 5.43746 13.1559 5.4929 13.2875 5.62099C13.419 5.74909 13.5076 5.93977 13.5344 6.15261C13.5612 6.36545 13.5242 6.5837 13.4311 6.7611C13.3381 6.93851 13.1964 7.0611 13.036 7.1029C12.6386 7.19142 12.2412 7.2816 11.8438 7.37343C11.1182 7.54272 10.1399 7.77508 9.12251 8.03234C8.10515 8.28959 7.05133 8.57506 6.17986 8.84394L6.07422 8.87713L11.4791 11.3733C12.4203 11.808 13.4454 11.808 14.3866 11.3733L23.2661 7.27053C23.2903 7.2589 23.3113 7.23769 23.3262 7.20978C23.341 7.18186 23.3489 7.1486 23.3489 7.11452C23.3489 7.08043 23.341 7.04717 23.3262 7.01926C23.3113 6.99135 23.2903 6.97014 23.2661 6.95851L14.3866 2.8557ZM14.8016 12.9384L18.6559 11.1592L19.1589 16.472C19.1686 16.5442 19.1635 16.6185 19.1443 16.6873C19.1251 16.7561 19.0924 16.8169 19.0495 16.8637C17.2903 18.6248 15.1409 19.5731 12.9329 19.5623C10.3033 19.5623 8.18312 18.0918 6.84132 16.8437C6.79319 16.7951 6.75579 16.7304 6.73302 16.6563C6.71024 16.5821 6.70291 16.5013 6.7118 16.4222L7.20978 11.1592L11.0641 12.9384C12.2744 13.4975 13.5926 13.4975 14.8028 12.9384M2.40094 19.5623L2.87252 16.7491L3.34662 19.5623H2.40094Z" fill="white"/>
</svg>
