<svg width="17" height="17" viewBox="0 0 17 17" fill="none" xmlns="http://www.w3.org/2000/svg">
<path d="M9.36595 0.47168C10.2723 0.474097 10.7323 0.47893 11.1295 0.490209L11.2858 0.495849C11.4662 0.502294 11.6443 0.51035 11.8594 0.520018C12.7166 0.560299 13.3015 0.695646 13.8147 0.894638C14.3464 1.09927 14.7943 1.37641 15.2423 1.82353C15.6521 2.22614 15.9691 2.71334 16.1711 3.25112C16.3701 3.76431 16.5055 4.3492 16.5458 5.2072C16.5554 5.4215 16.5635 5.59954 16.5699 5.78081L16.5748 5.93711C16.5869 6.33348 16.5917 6.79349 16.5933 7.69983L16.5941 8.30084V9.35622C16.5961 9.94385 16.5899 10.5315 16.5756 11.1189L16.5707 11.2752C16.5643 11.4565 16.5562 11.6346 16.5466 11.8489C16.5063 12.7069 16.3693 13.2909 16.1711 13.8049C15.9691 14.3427 15.6521 14.8299 15.2423 15.2325C14.8397 15.6423 14.3524 15.9593 13.8147 16.1614C13.3015 16.3604 12.7166 16.4958 11.8594 16.536L11.2858 16.5602L11.1295 16.565C10.7323 16.5763 10.2723 16.582 9.36595 16.5836L8.76495 16.5844H7.71037C7.12247 16.5864 6.53457 16.5803 5.94684 16.5658L5.79055 16.561C5.5993 16.5538 5.40809 16.5454 5.21694 16.536C4.35974 16.4958 3.77485 16.3604 3.26085 16.1614C2.72336 15.9592 2.23644 15.6422 1.83408 15.2325C1.42396 14.83 1.10668 14.3428 0.904374 13.8049C0.705382 13.2917 0.570035 12.7069 0.529753 11.8489L0.505584 11.2752L0.501556 11.1189C0.486705 10.5315 0.479991 9.94386 0.481415 9.35622V7.69983C0.479185 7.1122 0.485094 6.52457 0.499139 5.93711L0.504779 5.78081C0.511224 5.59954 0.51928 5.4215 0.528948 5.2072C0.569229 4.3492 0.704576 3.76511 0.903568 3.25112C1.10634 2.71312 1.42419 2.2259 1.83488 1.82353C2.23702 1.41391 2.72365 1.09691 3.26085 0.894638C3.77485 0.695646 4.35893 0.560299 5.21694 0.520018C5.43123 0.51035 5.61009 0.502294 5.79055 0.495849L5.94684 0.491015C6.5343 0.476701 7.12193 0.470524 7.70957 0.472485L9.36595 0.47168ZM8.53776 4.49985C7.46942 4.49985 6.44484 4.92425 5.68941 5.67968C4.93398 6.43511 4.50959 7.45969 4.50959 8.52803C4.50959 9.59636 4.93398 10.6209 5.68941 11.3764C6.44484 12.1318 7.46942 12.5562 8.53776 12.5562C9.6061 12.5562 10.6307 12.1318 11.3861 11.3764C12.1415 10.6209 12.5659 9.59636 12.5659 8.52803C12.5659 7.45969 12.1415 6.43511 11.3861 5.67968C10.6307 4.92425 9.6061 4.49985 8.53776 4.49985ZM8.53776 6.11112C8.85515 6.11107 9.16945 6.17353 9.4627 6.29494C9.75595 6.41636 10.0224 6.59434 10.2469 6.81873C10.4714 7.04313 10.6494 7.30953 10.7709 7.60274C10.8924 7.89596 10.955 8.21023 10.9551 8.52762C10.9551 8.84502 10.8927 9.15931 10.7712 9.45256C10.6498 9.74582 10.4719 10.0123 10.2475 10.2368C10.0231 10.4612 9.75666 10.6393 9.46344 10.7608C9.17023 10.8823 8.85596 10.9449 8.53857 10.9449C7.89756 10.9449 7.28281 10.6903 6.82956 10.237C6.3763 9.78378 6.12166 9.16903 6.12166 8.52803C6.12166 7.88702 6.3763 7.27227 6.82956 6.81902C7.28281 6.36576 7.89756 6.11112 8.53857 6.11112M12.7681 3.2914C12.5011 3.2914 12.2449 3.3975 12.0561 3.58636C11.8672 3.77521 11.7611 4.03136 11.7611 4.29844C11.7611 4.56553 11.8672 4.82167 12.0561 5.01053C12.2449 5.19939 12.5011 5.30549 12.7681 5.30549C13.0352 5.30549 13.2914 5.19939 13.4802 5.01053C13.6691 4.82167 13.7752 4.56553 13.7752 4.29844C13.7752 4.03136 13.6691 3.77521 13.4802 3.58636C13.2914 3.3975 13.0352 3.2914 12.7681 3.2914Z" fill="white"/>
</svg>
