<svg width="17" height="17" viewBox="0 0 17 17" fill="none" xmlns="http://www.w3.org/2000/svg">
<path fill-rule="evenodd" clip-rule="evenodd" d="M2.87716 0.472412C2.2667 0.472412 1.68125 0.714914 1.2496 1.14657C0.817941 1.57823 0.575439 2.16368 0.575439 2.77413V14.2827C0.575439 14.8932 0.817941 15.4786 1.2496 15.9103C1.68125 16.3419 2.2667 16.5844 2.87716 16.5844H14.3857C14.9962 16.5844 15.5817 16.3419 16.0133 15.9103C16.445 15.4786 16.6875 14.8932 16.6875 14.2827V2.77413C16.6875 2.16368 16.445 1.57823 16.0133 1.14657C15.5817 0.714914 14.9962 0.472412 14.3857 0.472412H2.87716ZM4.1454 5.41765C4.51015 5.41765 4.85996 5.27276 5.11787 5.01484C5.37579 4.75693 5.52068 4.40712 5.52068 4.04238C5.52068 3.67763 5.37579 3.32782 5.11787 3.06991C4.85996 2.812 4.51015 2.6671 4.1454 2.6671C3.78066 2.6671 3.43085 2.812 3.17294 3.06991C2.91502 3.32782 2.77013 3.67763 2.77013 4.04238C2.77013 4.40712 2.91502 4.75693 3.17294 5.01484C3.43085 5.27276 3.78066 5.41765 4.1454 5.41765ZM5.29626 14.0675V6.49601H2.99455V14.0675H5.29626ZM6.8246 6.49601H9.12632V7.50992C9.46583 6.97822 10.2116 6.26238 11.5984 6.26238C13.2533 6.26238 14.1521 7.35915 14.1521 9.44566C14.1521 9.54579 14.1613 10.0027 14.1613 10.0027V14.0664H11.8596V10.0038C11.8596 9.44566 11.7422 8.34889 10.5016 8.34889C9.25982 8.34889 9.15509 9.72762 9.12632 10.6299V14.0664H6.8246V6.49601Z" fill="white"/>
</svg>
