<svg width="42" height="40" viewBox="0 0 42 40" fill="none" xmlns="http://www.w3.org/2000/svg">
<path d="M18.4056 4.938L19.0457 4.6986L19.2851 4.0585L19.5029 3.4763L19.7206 4.0585L19.96 4.6986L20.6001 4.938L21.1823 5.15574L20.6001 5.37349L19.96 5.61289L19.7206 6.25298L19.5029 6.83518L19.2851 6.25298L19.0457 5.61289L18.4056 5.37349L17.8234 5.15574L18.4056 4.938ZM39.3087 8.09469L39.3086 8.09483L10.263 37.1481C10.2625 37.1485 10.2621 37.1489 10.2617 37.1494C9.41289 37.9922 8.04548 37.9877 7.20863 37.1509L4.57552 34.5178C4.5752 34.5175 4.57488 34.5172 4.57456 34.5168C3.73137 33.6681 3.73574 32.3004 4.5727 31.4635L33.6185 2.41769C33.619 2.41718 33.6195 2.41667 33.62 2.41615C34.4688 1.57354 35.836 1.5781 36.6728 2.41487L36.6743 2.4164L39.3059 5.04035C39.3066 5.04102 39.3072 5.04168 39.3079 5.04234C40.1501 5.89116 40.1454 7.25807 39.3087 8.09469ZM37.979 7.63341L39.0396 6.57275L37.979 5.51209L36.2039 3.73702L35.1432 2.67636L34.0826 3.73702L26.0834 11.7362L25.0227 12.7969L26.0834 13.8576L27.8584 15.6326L28.9191 16.6933L29.9797 15.6326L37.979 7.63341ZM6.28011 11.9424L6.0407 11.3043L5.40267 11.0649L2.64839 10.0315L5.40267 8.99799L6.0407 8.75859L6.28011 8.12056L7.31357 5.36627L8.34704 8.12056L8.58644 8.75859L9.22447 8.99799L11.9788 10.0315L9.22447 11.0649L8.58644 11.3043L8.34704 11.9424L7.31357 14.6966L6.28011 11.9424ZM33.0965 31.4452L32.8571 30.8072L32.2191 30.5678L29.4648 29.5343L32.2191 28.5008L32.8571 28.2614L33.0965 27.6234L34.13 24.8691L35.1635 27.6234L35.4029 28.2614L36.0409 28.5008L38.7952 29.5343L36.0409 30.5678L35.4029 30.8072L35.1635 31.4452L34.13 34.1995L33.0965 31.4452Z" stroke="#06355A" stroke-width="3"/>
</svg>
