<svg width="23" height="22" viewBox="0 0 23 22" fill="none" xmlns="http://www.w3.org/2000/svg">
<path d="M10.1922 3.37699L10.5179 3.25519L10.6397 2.92953L10.7716 2.57673L10.9036 2.92953L11.0254 3.25519L11.351 3.37699L11.7038 3.50894L11.351 3.64089L11.0254 3.76269L10.9036 4.08835L10.7716 4.44116L10.6397 4.08835L10.5179 3.76269L10.1922 3.64089L9.83939 3.50894L10.1922 3.37699ZM21.1204 5.05637L21.1204 5.05644L5.9639 20.2169C5.96372 20.2171 5.96355 20.2172 5.96337 20.2174C5.51287 20.665 4.78686 20.6627 4.34246 20.2183L2.96843 18.8443C2.96826 18.8441 2.96808 18.844 2.96791 18.8438C2.52036 18.3933 2.5226 17.6673 2.96699 17.2229L18.1235 2.06631C18.1237 2.06615 18.1239 2.06598 18.124 2.06581C18.5745 1.61825 19.3006 1.62048 19.745 2.06488L19.7458 2.06566L21.119 3.43493C21.1193 3.43522 21.1196 3.43551 21.1199 3.43581C21.5671 3.88634 21.5647 4.61209 21.1204 5.05637ZM20.3989 4.78799L20.9385 4.24836L20.3989 3.70872L19.4726 2.78247L18.933 2.24284L18.3934 2.78247L14.2192 6.95658L13.6796 7.49621L14.2192 8.03585L15.1455 8.9621L15.6851 9.50173L16.2248 8.9621L20.3989 4.78799ZM3.85346 7.05717L3.73166 6.73256L3.40705 6.61076L1.92099 6.05316L3.40705 5.49556L3.73166 5.37376L3.85346 5.04915L4.41106 3.5631L4.96866 5.04915L5.09046 5.37376L5.41507 5.49556L6.90112 6.05316L5.41507 6.61076L5.09046 6.73256L4.96866 7.05717L4.41106 8.54323L3.85346 7.05717ZM17.8467 17.2341L17.7249 16.9094L17.4003 16.7876L15.9142 16.23L17.4003 15.6724L17.7249 15.5506L17.8467 15.226L18.4043 13.74L18.9619 15.226L19.0837 15.5506L19.4083 15.6724L20.8943 16.23L19.4083 16.7876L19.0837 16.9094L18.9619 17.2341L18.4043 18.7201L17.8467 17.2341Z" stroke="white" stroke-width="1.52631"/>
</svg>
