<svg width="17" height="15" viewBox="0 0 17 15" fill="none" xmlns="http://www.w3.org/2000/svg">
<path d="M4.76023 4.86029L6.97262 6.16878C8.26231 6.93131 8.77743 6.93131 10.0679 6.16878L12.2803 4.86029M1.01226 8.60225C1.06114 10.9071 1.08595 12.06 1.93647 12.9135C2.78698 13.7678 3.97063 13.7971 6.33869 13.8565C7.79757 13.8941 9.24292 13.8941 10.7018 13.8565C13.0699 13.7971 14.2535 13.7678 15.104 12.9135C15.9545 12.06 15.9793 10.9071 16.029 8.60225C16.044 7.86078 16.044 7.12382 16.029 6.38234C15.9793 4.07746 15.9545 2.92464 15.104 2.07112C14.2535 1.21684 13.0699 1.18751 10.7018 1.12811C9.24766 1.09141 7.79283 1.09141 6.33869 1.12811C3.97063 1.18751 2.78698 1.21684 1.93647 2.07112C1.08595 2.92464 1.06114 4.07746 1.0115 6.38234C0.995673 7.12223 0.996425 7.86237 1.01226 8.60225Z" stroke="white" stroke-width="1.69203" stroke-linecap="round" stroke-linejoin="round"/>
</svg>
