<svg width="22" height="23" viewBox="0 0 22 23" fill="none" xmlns="http://www.w3.org/2000/svg">
<path d="M7.11456 18.4083V21.3155M2.75368 0.964722H11.4754C11.861 0.964722 12.2307 1.11787 12.5033 1.39048C12.7759 1.66309 12.9291 2.03282 12.9291 2.41835V21.1338C12.9291 21.182 12.9099 21.2282 12.8758 21.2623C12.8418 21.2964 12.7956 21.3155 12.7474 21.3155H1.30005V2.41835C1.30005 2.03282 1.4532 1.66309 1.72581 1.39048C1.99841 1.11787 2.36815 0.964722 2.75368 0.964722ZM13.6559 8.23286H18.7436C19.1291 8.23286 19.4988 8.38601 19.7714 8.65862C20.0441 8.93123 20.1972 9.30096 20.1972 9.68649V21.3155H12.9291V8.95967C12.9291 8.76691 13.0056 8.58204 13.1419 8.44574C13.2783 8.30943 13.4631 8.23286 13.6559 8.23286Z" stroke="white" stroke-width="1.6959" stroke-linecap="round" stroke-linejoin="round"/>
</svg>
