<svg width="40" height="43" viewBox="0 0 40 43" fill="none" xmlns="http://www.w3.org/2000/svg">
<path d="M13.1429 35.7086V41.28M4.78571 2.28003H21.5C22.2388 2.28003 22.9474 2.57352 23.4698 3.09595C23.9922 3.61837 24.2857 4.32693 24.2857 5.06574V40.9318C24.2857 41.0242 24.249 41.1127 24.1837 41.178C24.1184 41.2433 24.0299 41.28 23.9375 41.28H2V5.06574C2 4.32693 2.29349 3.61837 2.81592 3.09595C3.33834 2.57352 4.0469 2.28003 4.78571 2.28003ZM25.6786 16.2086H35.4286C36.1674 16.2086 36.8759 16.5021 37.3984 17.0245C37.9208 17.5469 38.2143 18.2555 38.2143 18.9943V41.28H24.2857V17.6015C24.2857 17.2321 24.4325 16.8778 24.6937 16.6166C24.9549 16.3553 25.3092 16.2086 25.6786 16.2086Z" stroke="#06355A" stroke-width="3" stroke-linecap="round" stroke-linejoin="round"/>
</svg>
