<svg width="25" height="24" viewBox="0 0 25 24" fill="none" xmlns="http://www.w3.org/2000/svg">
<path d="M22.1575 2.48626C22.4551 1.78353 22.4548 1.78339 22.4544 1.78325L22.4537 1.78292L22.4517 1.78211L22.4465 1.77994L22.4306 1.77339C22.4175 1.76808 22.3997 1.76091 22.3771 1.75214C22.3321 1.73461 22.2686 1.71062 22.188 1.68218C22.027 1.62535 21.7973 1.55046 21.5117 1.47362C20.9422 1.32039 20.1413 1.15698 19.2134 1.11726C17.3558 1.03774 14.9452 1.45602 12.9126 3.48547C12.1713 4.2018 11.4346 5.21505 10.7131 6.33698C9.98694 7.46617 9.24755 8.75137 8.51144 10.0309L8.50723 10.0382L8.50666 10.0392C8.06252 10.8139 7.61703 11.5876 7.17094 12.334L6.86579 12.8446L7.28638 13.2652L11.3786 17.3574L11.7997 17.7785L12.3105 17.4724C13.0322 17.0399 13.7761 16.6108 14.5218 16.1806C14.5728 16.1513 14.6237 16.1219 14.6746 16.0925C15.947 15.3608 17.2202 14.6282 18.338 13.9086C19.447 13.1948 20.4474 12.4663 21.1583 11.7312C23.187 9.69858 23.6053 7.28798 23.526 5.43039C23.4863 4.50256 23.3231 3.7017 23.17 3.13219C23.0932 2.84663 23.0184 2.61697 22.9616 2.45594C22.9332 2.37537 22.9092 2.31179 22.8917 2.26679C22.8829 2.24428 22.8757 2.2264 22.8704 2.21335L22.8639 2.19741L22.8617 2.19219L22.8609 2.19028L22.8606 2.1895C22.8604 2.18916 22.8603 2.18884 22.1575 2.48626ZM22.1575 2.48626L22.4551 1.78353L22.7398 1.9041L22.8603 2.18884L22.1575 2.48626ZM7.22189 21.966L7.22187 21.9659C6.67303 22.1771 6.11347 22.3592 5.54551 22.5116C4.99448 22.6617 4.46885 22.7819 4.0672 22.8623C3.89141 22.8983 3.71463 22.9294 3.53708 22.9554L3.51897 22.958L3.50076 22.9598L3.30707 22.9787L3.30136 22.9793L3.30136 22.9793C3.10564 22.9969 2.90841 22.9757 2.72099 22.9169C2.44603 22.8347 2.20055 22.6749 2.01408 22.4566C1.85273 22.269 1.74058 22.0442 1.68776 21.8025M7.22189 21.966L2.94448 22.1871C2.8078 22.1474 2.68578 22.0684 2.59351 21.96C2.51427 21.8682 2.45921 21.758 2.43332 21.6396C2.4149 21.5555 2.40901 21.4691 2.41584 21.3833M7.22189 21.966L7.23053 21.9625M7.22189 21.966L7.23053 21.9625M1.68776 21.8025L2.43331 21.6396L1.68784 21.8028C1.68781 21.8027 1.68778 21.8026 1.68776 21.8025ZM1.68776 21.8025C1.65343 21.6456 1.64238 21.4845 1.65496 21.3244M1.65496 21.3244C1.65491 21.325 1.65487 21.3256 1.65483 21.3262L2.41584 21.3833M1.65496 21.3244C1.655 21.3239 1.65505 21.3233 1.6551 21.3227L2.41584 21.3833M1.65496 21.3244C1.66137 21.2399 1.6731 21.1526 1.6822 21.0889L1.68272 21.0853C1.70389 20.942 1.73549 20.761 1.77724 20.5583M2.41584 21.3833C2.42021 21.325 2.42895 21.258 2.43769 21.1969C2.45662 21.0687 2.48575 20.9012 2.52507 20.7105M1.77724 20.5583C1.7771 20.5589 1.77697 20.5596 1.77684 20.5602L2.52507 20.7105M1.77724 20.5583C1.77736 20.5576 1.77749 20.557 1.77762 20.5564L2.52507 20.7105M1.77724 20.5583C1.8583 20.1548 1.98179 19.6316 2.13127 19.086L2.13141 19.0855C2.28111 18.5406 2.46742 17.9426 2.68162 17.4093M2.52507 20.7105C2.60225 20.326 2.72167 19.8192 2.8673 19.2876C3.01293 18.7575 3.1906 18.1896 3.39011 17.693M2.68162 17.4093C2.68149 17.4097 2.68136 17.41 2.68124 17.4103L3.39011 17.693M2.68162 17.4093C2.68174 17.4091 2.68185 17.4088 2.68197 17.4085L3.39011 17.693M2.68162 17.4093C2.87049 16.9358 3.15554 16.3118 3.57289 15.875M3.39011 17.693C3.57652 17.2255 3.81826 16.7216 4.127 16.3998M4.127 16.3998L3.56982 15.8783C3.57085 15.8772 3.57187 15.8761 3.57289 15.875M4.127 16.3998L3.57627 15.8715C3.57514 15.8727 3.57402 15.8738 3.57289 15.875M4.127 16.3998L6.18871 14.7149M3.57289 15.875C3.90868 15.5171 4.31275 15.2301 4.76127 15.0309C5.21113 14.831 5.69654 14.7236 6.18871 14.7149M6.18871 14.7149C6.18874 14.7149 6.18877 14.7149 6.1888 14.7149L6.20223 15.478L6.18871 14.7149ZM6.18871 14.7149C6.93152 14.7018 7.66089 14.914 8.28067 15.3236C8.90046 15.7333 9.38156 16.3211 9.66056 17.0097C9.93956 17.6982 10.0034 18.4552 9.84357 19.1807C9.68404 19.9051 9.3091 20.5642 8.76807 21.0715C8.32975 21.4887 7.70391 21.7738 7.23053 21.9625M6.18871 14.7149L7.23053 21.9625M9.73186 7.36156L10.2571 6.49102L9.27452 6.22978C6.82229 5.57781 4.61766 6.81877 2.83937 8.4495L2.83932 8.44945L2.83187 8.45647C2.66596 8.61276 2.53889 8.80567 2.4608 9.0198C2.38271 9.23393 2.35576 9.46335 2.3821 9.68974C2.40843 9.91614 2.48734 10.1332 2.6125 10.3237L3.24954 9.90513L2.6125 10.3237C2.73614 10.5119 2.90154 10.6689 3.09578 10.7826L5.86513 12.4515L6.57237 12.8777L6.93174 12.1589C7.29698 11.5473 7.69949 10.8505 8.10711 10.1448C8.14626 10.077 8.18545 10.0092 8.22467 9.94132L8.22536 9.94012C8.743 9.04044 9.2648 8.13568 9.73186 7.36156ZM12.4534 17.7303L11.7975 18.1236L12.1922 18.7786L13.8614 21.5484C13.9754 21.7427 14.1327 21.908 14.3212 22.0315C14.5118 22.1563 14.729 22.2349 14.9554 22.261C15.1818 22.287 15.4111 22.2598 15.6251 22.1815C15.8391 22.1031 16.0318 21.9759 16.1879 21.8098L16.1879 21.8099L16.194 21.8032C17.8248 20.0264 19.0677 17.82 18.4139 15.3673L18.1525 14.3869L17.2831 14.9099C16.53 15.3629 15.7382 15.8195 14.9463 16.276L14.9454 16.2765L14.8253 16.346C14.8253 16.346 14.8252 16.346 14.8251 16.3461C14.7633 16.3817 14.7016 16.4173 14.6398 16.4529C13.9057 16.8761 13.1722 17.299 12.4606 17.7259C12.4606 17.7259 12.4606 17.7259 12.4605 17.726L12.4534 17.7303ZM16.2636 8.35032C15.9773 8.07109 15.8104 7.69263 15.7979 7.29557C15.8004 6.89042 15.9625 6.5024 16.2491 6.21572C16.5381 5.92678 16.93 5.76446 17.3386 5.76446C17.7472 5.76446 18.1391 5.92678 18.428 6.21572C18.7147 6.50241 18.8768 6.89044 18.8793 7.29561C18.8668 7.69387 18.7004 8.07195 18.415 8.35032C18.1272 8.63092 17.7412 8.78797 17.3393 8.78797C16.9374 8.78797 16.5514 8.63092 16.2636 8.35032Z" stroke="white" stroke-width="1.52631"/>
</svg>
