<svg width="21" height="22" viewBox="0 0 21 22" fill="none" xmlns="http://www.w3.org/2000/svg">
<path d="M9.25227 16.8285C9.23706 16.9379 9.2236 17.0479 9.20663 17.1574C9.161 17.4552 9.0545 17.7349 8.93456 18.0081C8.7011 18.5394 8.38046 19.011 7.94981 19.403C7.61981 19.7038 7.23832 19.9244 6.834 20.1098C6.35011 20.3322 5.85043 20.5147 5.33904 20.6581C4.79957 20.8096 4.25424 20.9389 3.71009 21.0706C3.38184 21.1496 3.04891 21.2069 2.71071 21.2198C1.69203 21.2596 0.658138 20.5235 0.473827 19.389C0.427603 19.104 0.432284 18.8121 0.483189 18.5248C0.53936 18.2071 0.59202 17.8882 0.665159 17.5746C0.845374 16.7993 1.05952 16.0334 1.34974 15.2903C1.56916 14.7286 1.83772 14.1944 2.24321 13.7397C2.85875 13.0493 3.62407 12.6268 4.531 12.456C4.62813 12.4378 4.72584 12.425 4.84637 12.4057C4.77324 12.3594 4.71648 12.322 4.65797 12.2863C4.06057 11.9235 3.46258 11.5602 2.8646 11.198C2.59896 11.0371 2.32863 10.8826 2.06592 10.717C1.49251 10.3554 1.17245 9.82649 1.06538 9.16355C0.991652 8.70658 1.09697 8.27594 1.3041 7.87514C1.44921 7.5937 1.66629 7.35731 1.91203 7.15545C2.24262 6.88454 2.57731 6.61831 2.91726 6.35911C3.27359 6.08703 3.66562 5.87113 4.06759 5.67511C4.51871 5.45511 4.99265 5.29771 5.48064 5.18303C5.94931 5.07303 6.42501 5.02915 6.90539 5.04553C7.26816 5.05782 7.62507 5.11574 7.97614 5.20878C8.12593 5.24857 8.27572 5.28952 8.42434 5.33458C8.47934 5.35096 8.50567 5.33341 8.53609 5.28835C8.74264 4.98526 8.93924 4.67398 9.16451 4.38611C9.56297 3.87765 9.96377 3.36977 10.4459 2.93386C10.8736 2.54651 11.3259 2.19369 11.8285 1.90523C12.4476 1.54948 13.1058 1.29496 13.7945 1.11533C14.4446 0.945061 15.1063 0.860219 15.7775 0.872507C16.2139 0.880113 16.6516 0.897081 17.0869 0.935699C17.3707 0.960859 17.6516 1.02873 17.9324 1.08256C18.531 1.19724 19.1026 1.39384 19.6632 1.63198C19.8364 1.70571 19.9347 1.79874 20.0102 1.97369C20.3156 2.68226 20.5309 3.41541 20.662 4.1743C20.7761 4.83489 20.8205 5.50133 20.7948 6.1707C20.7767 6.64406 20.7123 7.11273 20.6175 7.5779C20.4841 8.23264 20.2471 8.84759 19.9475 9.44207C19.7094 9.91425 19.4186 10.3507 19.0927 10.7679C18.5292 11.49 17.8464 12.0809 17.1098 12.6151C16.8605 12.7959 16.6013 12.9644 16.345 13.1359C16.3041 13.1634 16.3105 13.1897 16.3199 13.2283C16.3912 13.5028 16.4749 13.7754 16.5264 14.0539C16.6112 14.5115 16.6288 14.9755 16.5954 15.4406C16.5475 16.1001 16.3591 16.7215 16.094 17.3235C15.8956 17.7741 15.6557 18.2006 15.3807 18.6079C15.1139 19.0028 14.8202 19.3779 14.5013 19.7324C14.3697 19.8787 14.2415 20.0314 14.09 20.1543C13.6792 20.4878 13.2018 20.63 12.6734 20.6101C12.1907 20.5926 11.7741 20.4129 11.3996 20.1174C11.1539 19.9232 10.9842 19.6704 10.8256 19.4077C10.3219 18.5716 9.81749 17.7355 9.31312 16.8993C9.2985 16.8748 9.28328 16.8508 9.26866 16.8262C9.26339 16.8274 9.25812 16.8285 9.25227 16.8297V16.8285ZM16.1051 2.41662C15.4902 2.40609 15.0057 2.45114 14.5247 2.54476C13.8343 2.67875 13.186 2.92157 12.581 3.28025C12.1948 3.50902 11.8408 3.77935 11.512 4.08536C11.1088 4.46042 10.7414 4.86707 10.4114 5.30766C9.87717 6.01974 9.40148 6.77103 8.94626 7.5346C8.48226 8.31222 8.03173 9.09744 7.57534 9.87973C7.24651 10.4438 6.91826 11.0078 6.59177 11.5736C6.5824 11.59 6.59001 11.6304 6.60464 11.645C6.67661 11.7205 6.75501 11.7901 6.82874 11.8638C7.88077 12.9159 8.9328 13.9679 9.98308 15.0217C10.0293 15.0679 10.0591 15.0668 10.1118 15.0357C10.8052 14.6291 11.5003 14.2259 12.1936 13.8199C12.9455 13.3793 13.6997 12.9422 14.4469 12.494C15.0466 12.1342 15.6329 11.7521 16.1981 11.339C16.8558 10.858 17.4702 10.3314 17.9669 9.67904C18.4023 9.10797 18.7387 8.48541 18.9482 7.79732C19.1184 7.23736 19.2191 6.66395 19.2378 6.07884C19.2571 5.48788 19.2273 4.89925 19.1091 4.31707C19.0219 3.88876 18.9236 3.46456 18.7732 3.05322C18.7428 2.97014 18.6942 2.92274 18.6112 2.89407C18.1431 2.72907 17.665 2.60795 17.1753 2.52721C16.7792 2.46167 16.3807 2.4254 16.1051 2.4172V2.41662ZM7.71694 16.402C7.70875 16.3101 7.70348 16.1908 7.68593 16.0732C7.64087 15.7689 7.55837 15.474 7.40858 15.2043C7.25821 14.9345 7.05342 14.7087 6.81469 14.5115C6.3665 14.1417 5.84867 13.9562 5.27351 13.9422C4.89552 13.9328 4.53275 14.0212 4.18988 14.1867C3.75455 14.3968 3.40232 14.6999 3.14955 15.1124C2.94827 15.4412 2.81077 15.7987 2.68906 16.1633C2.39534 17.0439 2.15486 17.9373 2.00214 18.8542C1.92198 19.3363 2.28124 19.6985 2.69433 19.657C2.93481 19.633 3.17471 19.5903 3.41226 19.5417C4.2519 19.3679 5.07866 19.1485 5.87325 18.8197C6.19272 18.6874 6.51219 18.5511 6.78251 18.334C7.38927 17.8472 7.6871 17.2024 7.71752 16.402H7.71694ZM2.60364 8.92541C2.60949 8.95584 2.61592 9.01201 2.63231 9.06467C2.68672 9.24254 2.81428 9.35489 2.96992 9.44792C3.70658 9.89026 4.44089 10.3367 5.17638 10.782C5.25069 10.827 5.25654 10.8247 5.29633 10.7492C5.31681 10.7106 5.33845 10.6726 5.36069 10.6351C5.55144 10.311 5.74335 9.98739 5.93293 9.66207C6.05054 9.46079 6.16229 9.256 6.2799 9.05472C6.54379 8.60243 6.8106 8.15131 7.07448 7.69902C7.24475 7.40763 7.41151 7.11449 7.58061 6.82252C7.62976 6.73768 7.62976 6.73475 7.53614 6.70842C7.52444 6.70491 7.51273 6.70257 7.50045 6.70023C7.15933 6.62943 6.81762 6.58906 6.46714 6.61071C6.02947 6.63821 5.60702 6.73241 5.1992 6.88747C4.28291 7.23619 3.51232 7.81077 2.79497 8.46434C2.66859 8.57961 2.6089 8.72823 2.60422 8.92424L2.60364 8.92541ZM14.9425 14.0182C14.8916 14.0434 14.8676 14.0539 14.8454 14.0668C14.6868 14.161 14.5288 14.2564 14.3691 14.3494C13.6763 14.752 12.983 15.1534 12.2902 15.5565C11.8285 15.8251 11.368 16.0966 10.9064 16.3645C10.8485 16.3979 10.842 16.4277 10.8771 16.4845C11.0275 16.7256 11.1744 16.969 11.3212 17.2124C11.6249 17.7156 11.9274 18.2193 12.2317 18.722C12.306 18.8448 12.3967 18.9525 12.5353 19.0046C12.7735 19.0941 12.9917 19.0555 13.1737 18.8758C13.4586 18.5956 13.7032 18.2814 13.9361 17.9572C14.2684 17.4938 14.5633 17.0105 14.7635 16.4734C14.9846 15.8783 15.0975 15.2663 15.0373 14.6308C15.0186 14.4319 14.977 14.2347 14.9431 14.0176L14.9425 14.0182Z" fill="white"/>
<path d="M16.5889 7.0068C16.5761 7.9032 15.8394 8.93358 14.6124 8.92305C13.5762 8.91427 12.6933 8.02256 12.6985 6.98398C12.7038 5.9495 13.5499 5.07652 14.6393 5.07125C15.7645 5.06598 16.5755 5.97291 16.5889 7.00622V7.0068ZM15.0249 6.99627C15.0062 6.79616 14.8529 6.63467 14.6335 6.63058C14.4381 6.62707 14.2497 6.80962 14.2502 6.99686C14.2502 7.18175 14.4498 7.3608 14.6546 7.36138C14.8371 7.36138 15.0244 7.17766 15.0255 6.99686L15.0249 6.99627Z" fill="white"/>
</svg>
