<svg width="40" height="40" viewBox="0 0 40 40" fill="none" xmlns="http://www.w3.org/2000/svg">
<path d="M16.8848 30.8614C16.8556 31.0711 16.8298 31.2819 16.7973 31.4916C16.7098 32.0623 16.5057 32.5983 16.2759 33.122C15.8284 34.1402 15.2139 35.044 14.3886 35.7953C13.7562 36.3717 13.0251 36.7944 12.2502 37.1499C11.3229 37.576 10.3652 37.9259 9.38519 38.2006C8.35131 38.491 7.30622 38.7388 6.26336 38.9911C5.63429 39.1425 4.99624 39.2524 4.3481 39.2771C2.39584 39.3533 0.414421 37.9427 0.0611974 35.7684C-0.027389 35.2223 -0.0184182 34.6627 0.0791389 34.1122C0.186788 33.5033 0.287709 32.8921 0.427878 32.2911C0.773252 30.8053 1.18367 29.3375 1.73985 27.9134C2.16036 26.8369 2.67506 25.8131 3.45215 24.9418C4.6318 23.6186 6.09853 22.809 7.83661 22.4816C8.02276 22.4468 8.21002 22.4221 8.44102 22.3851C8.30085 22.2965 8.19208 22.2248 8.07994 22.1564C6.93505 21.4611 5.78903 20.7648 4.64302 20.0707C4.13393 19.7623 3.61587 19.4663 3.11238 19.1489C2.01346 18.4559 1.40008 17.4422 1.19488 16.1717C1.05359 15.296 1.25543 14.4707 1.65239 13.7025C1.93048 13.1632 2.3465 12.7102 2.81747 12.3233C3.45103 11.8041 4.09244 11.2939 4.74394 10.7971C5.42684 10.2757 6.17814 9.86193 6.94851 9.48628C7.81306 9.06465 8.72136 8.76301 9.65656 8.54323C10.5548 8.33241 11.4664 8.24831 12.387 8.27971C13.0823 8.30326 13.7663 8.41427 14.4391 8.59257C14.7262 8.66882 15.0132 8.74731 15.298 8.83366C15.4035 8.86505 15.4539 8.83141 15.5122 8.74507C15.9081 8.16421 16.2848 7.56766 16.7166 7.01595C17.4802 6.0415 18.2483 5.06818 19.1723 4.23277C19.992 3.49044 20.8588 2.81427 21.822 2.26145C23.0084 1.57967 24.2699 1.09188 25.5898 0.747628C26.8356 0.421316 28.1038 0.258721 29.39 0.282269C30.2265 0.296847 31.0653 0.329366 31.8996 0.403375C32.4434 0.451593 32.9817 0.581669 33.5199 0.684833C34.6671 0.904616 35.7626 1.28139 36.8369 1.73778C37.1688 1.87907 37.3572 2.05736 37.5018 2.39264C38.0872 3.75059 38.4998 5.15564 38.751 6.61003C38.9697 7.87603 39.0549 9.15324 39.0056 10.4361C38.9708 11.3432 38.8474 12.2414 38.6658 13.1329C38.4101 14.3877 37.956 15.5662 37.3818 16.7055C36.9255 17.6104 36.3681 18.447 35.7436 19.2465C34.6637 20.6302 33.3551 21.7628 31.9433 22.7866C31.4656 23.1331 30.9689 23.456 30.4777 23.7846C30.3992 23.8373 30.4116 23.8877 30.4295 23.9617C30.5663 24.4876 30.7267 25.0102 30.8253 25.544C30.9879 26.4208 31.0216 27.3101 30.9577 28.2015C30.8657 29.4653 30.5046 30.6562 29.9967 31.81C29.6165 32.6735 29.1568 33.4909 28.6297 34.2714C28.1184 35.0283 27.5555 35.7471 26.9444 36.4266C26.692 36.707 26.4465 36.9996 26.156 37.2351C25.3689 37.8743 24.4538 38.1468 23.4413 38.1086C22.5162 38.075 21.7178 37.7307 21.0001 37.1645C20.5291 36.7922 20.2039 36.3078 19.9001 35.8043C18.9346 34.2019 17.968 32.5995 17.0014 30.9971C16.9733 30.95 16.9442 30.904 16.9162 30.8569C16.9061 30.8591 16.896 30.8614 16.8848 30.8636V30.8614ZM30.018 3.2415C28.8394 3.22132 27.911 3.30766 26.9892 3.48708C25.666 3.74387 24.4236 4.20922 23.2641 4.89661C22.524 5.33506 21.8456 5.85312 21.2154 6.43958C20.4428 7.15836 19.7386 7.9377 19.1061 8.78207C18.0824 10.1468 17.1707 11.5866 16.2983 13.0499C15.4091 14.5402 14.5456 16.045 13.671 17.5443C13.0408 18.6253 12.4117 19.7062 11.786 20.7906C11.7681 20.822 11.7826 20.8993 11.8107 20.9274C11.9486 21.072 12.0988 21.2055 12.2401 21.3468C14.2563 23.3629 16.2725 25.3791 18.2853 27.3987C18.3739 27.4873 18.4311 27.485 18.532 27.4256C19.8608 26.6462 21.193 25.8736 22.5218 25.0954C23.9627 24.251 25.4081 23.4134 26.8401 22.5544C27.9894 21.8648 29.113 21.1326 30.1963 20.3409C31.4567 19.4192 32.6341 18.41 33.5861 17.1597C34.4204 16.0652 35.0651 14.8721 35.4666 13.5534C35.7929 12.4803 35.9858 11.3814 36.0216 10.26C36.0587 9.12745 36.0015 7.99937 35.775 6.88363C35.6079 6.06281 35.4195 5.24983 35.1313 4.46153C35.073 4.3023 34.9799 4.21147 34.8207 4.15652C33.9236 3.8403 33.0075 3.60818 32.0689 3.45344C31.3098 3.32785 30.5461 3.25832 30.018 3.24262V3.2415ZM13.9423 30.0439C13.9266 29.8679 13.9166 29.6391 13.8829 29.4137C13.7966 28.8306 13.6385 28.2655 13.3514 27.7485C13.0632 27.2316 12.6707 26.7987 12.2132 26.4208C11.3543 25.7122 10.3619 25.3567 9.2596 25.3298C8.53521 25.3118 7.83998 25.4812 7.18287 25.7985C6.34859 26.2011 5.67354 26.7819 5.18911 27.5725C4.80337 28.2027 4.53985 28.8878 4.30661 29.5864C3.7437 31.274 3.28283 32.9863 2.99015 34.7435C2.83653 35.6675 3.52504 36.3616 4.31671 36.282C4.77758 36.236 5.23733 36.1541 5.6926 36.0611C7.30173 35.728 8.88619 35.3075 10.409 34.6773C11.0212 34.4239 11.6335 34.1626 12.1516 33.7466C13.3144 32.8136 13.8852 31.5779 13.9435 30.0439H13.9423ZM4.1429 15.7154C4.15411 15.7737 4.16645 15.8813 4.19784 15.9822C4.30213 16.3231 4.54658 16.5384 4.84486 16.7167C6.25664 17.5645 7.66393 18.42 9.07346 19.2734C9.21587 19.3597 9.22708 19.3552 9.30333 19.2106C9.34258 19.1366 9.38407 19.0637 9.42668 18.9919C9.79224 18.3707 10.16 17.7506 10.5234 17.1271C10.7487 16.7414 10.9629 16.3489 11.1883 15.9632C11.694 15.0964 12.2054 14.2318 12.7111 13.365C13.0374 12.8066 13.357 12.2448 13.6811 11.6852C13.7753 11.5226 13.7753 11.517 13.5958 11.4666C13.5734 11.4598 13.551 11.4554 13.5274 11.4509C12.8737 11.3152 12.2188 11.2378 11.5471 11.2793C10.7084 11.332 9.89877 11.5126 9.11719 11.8097C7.36116 12.478 5.88435 13.5792 4.50958 14.8317C4.26737 15.0526 4.15299 15.3375 4.14402 15.7131L4.1429 15.7154ZM27.7898 25.4756C27.6923 25.5238 27.6463 25.544 27.6037 25.5686C27.2998 25.7492 26.9971 25.9319 26.6909 26.1102C25.3633 26.8817 24.0345 27.651 22.7068 28.4236C21.822 28.9383 20.9395 29.4586 20.0548 29.9722C19.9438 30.0361 19.9315 30.0933 19.9987 30.202C20.2869 30.664 20.5684 31.1305 20.8498 31.597C21.4318 32.5613 22.0116 33.5268 22.5947 34.4901C22.7371 34.7255 22.9109 34.9319 23.1766 35.0317C23.633 35.2032 24.0513 35.1292 24.4 34.785C24.9461 34.2478 25.4148 33.6457 25.8611 33.0245C26.4981 32.1364 27.0632 31.2101 27.4467 30.1807C27.8706 29.0403 28.087 27.8674 27.9715 26.6496C27.9356 26.2683 27.856 25.8905 27.791 25.4744L27.7898 25.4756Z" fill="#06355A"/>
<path d="M30.9452 12.0384C30.9205 13.7563 29.5088 15.731 27.1573 15.7108C25.1714 15.694 23.4793 13.9851 23.4894 11.9947C23.4995 10.0121 25.1209 8.33909 27.2089 8.329C29.3652 8.31891 30.9194 10.057 30.9452 12.0373V12.0384ZM27.9478 12.0182C27.912 11.6347 27.6182 11.3252 27.1977 11.3174C26.8231 11.3107 26.4621 11.6605 26.4632 12.0194C26.4632 12.3737 26.8456 12.7168 27.238 12.718C27.5879 12.718 27.9467 12.3658 27.949 12.0194L27.9478 12.0182Z" fill="#06355A"/>
</svg>
