<svg width="17" height="18" viewBox="0 0 17 18" fill="none" xmlns="http://www.w3.org/2000/svg">
<path fill-rule="evenodd" clip-rule="evenodd" d="M8.44135 1.87675C7.25084 1.87648 6.08141 2.19094 5.0516 2.78826C4.02178 3.38558 3.16817 4.24453 2.57728 5.27805C1.98639 6.31157 1.67922 7.48293 1.68691 8.67342C1.69459 9.8639 2.01686 11.0312 2.62104 12.057L3.10136 12.6631L2.513 14.6544L4.47139 14.1074L4.79131 14.3125C5.67422 14.8794 6.67707 15.2327 7.72031 15.3445C8.76355 15.4562 9.81849 15.3234 10.8014 14.9564C11.7844 14.5895 12.6683 13.9986 13.3831 13.2305C14.0979 12.4625 14.6239 11.5384 14.9194 10.5317C15.2149 9.52495 15.2718 8.4632 15.0855 7.43066C14.8991 6.39812 14.4748 5.4232 13.8461 4.58322C13.2174 3.74324 12.4016 3.06131 11.4634 2.59152C10.5253 2.12173 9.49056 1.877 8.44135 1.87675ZM7.79734e-06 8.62982C7.79734e-06 3.96767 3.7792 0.188477 8.44135 0.188477C13.1035 0.188477 16.8827 3.96767 16.8827 8.62982C16.8827 13.292 13.1035 17.0712 8.44135 17.0712C6.95424 17.0733 5.49317 16.6809 4.20717 15.9341L0.0303966 17.1007L1.23413 13.0244L1.22907 13.0185L1.20121 12.972C0.413238 11.6609 -0.00207524 10.1596 7.79734e-06 8.62982Z" fill="white"/>
<path d="M12.4383 9.88927C12.4062 9.87407 11.1747 9.26798 10.956 9.18864C10.8648 9.15091 10.7677 9.12948 10.669 9.12533C10.5036 9.12533 10.3634 9.20805 10.2554 9.37097C10.1321 9.55415 9.75989 9.98888 9.64508 10.1189C9.62989 10.1358 9.60963 10.1569 9.59697 10.1569C9.586 10.1569 9.39522 10.0784 9.33782 10.053C8.01759 9.47902 7.01561 8.10055 6.87801 7.86757C6.8586 7.8338 6.85775 7.81945 6.85775 7.81945C6.86197 7.80172 6.90671 7.75698 6.9295 7.73419C6.99704 7.66751 7.06963 7.58056 7.13969 7.4953L7.23846 7.37712C7.3406 7.25895 7.38618 7.16609 7.43852 7.06057L7.46637 7.00486C7.50814 6.92035 7.52844 6.82685 7.5255 6.73263C7.52256 6.6384 7.49645 6.54636 7.44949 6.46462C7.42079 6.40637 6.9008 5.15199 6.84594 5.0203C6.71256 4.70206 6.53698 4.55434 6.29303 4.55434C6.27024 4.55434 6.29303 4.55434 6.19848 4.55856C6.08284 4.56278 5.45311 4.64635 5.17455 4.82109C4.8791 5.00679 4.38106 5.60107 4.38106 6.64442C4.38106 7.58309 4.97618 8.46943 5.23195 8.80624L5.26656 8.85689C6.2466 10.2877 7.46806 11.3479 8.70556 11.8426C9.89748 12.3187 10.4622 12.3744 10.783 12.3744C10.918 12.3744 11.0261 12.3634 11.1206 12.3541L11.1814 12.3482C11.5933 12.3119 12.4983 11.8426 12.7042 11.2711C12.8663 10.8203 12.9094 10.3282 12.8013 10.1493C12.727 10.0277 12.5996 9.96693 12.4383 9.88927Z" fill="white"/>
</svg>
