<svg width="17" height="17" viewBox="0 0 17 17" fill="none" xmlns="http://www.w3.org/2000/svg">
<path d="M2.97018 0.472412C1.70063 0.472412 0.668457 1.50459 0.668457 2.77413V14.2827C0.668457 15.5523 1.70063 16.5844 2.97018 16.5844H14.4788C15.7483 16.5844 16.7805 15.5523 16.7805 14.2827V2.77413C16.7805 1.50459 15.7483 0.472412 14.4788 0.472412H2.97018ZM13.6552 3.49342L9.92208 7.75879L14.3133 13.5634H10.8751L8.18501 10.0425L5.10286 13.5634H3.39455L7.3866 8.99956L3.17517 3.49342H6.69968L9.13446 6.71223L11.9469 3.49342H13.6552ZM12.2957 12.542L6.18539 4.46086H5.1676L11.3463 12.542H12.2921H12.2957Z" fill="white"/>
</svg>
