<svg width="138" height="147" viewBox="0 0 138 147" fill="none" xmlns="http://www.w3.org/2000/svg">
<path d="M0.657227 111.523C1.35172 108.736 2.09942 105.961 2.73481 103.159C5.6842 90.1443 8.58927 77.1173 11.5327 64.1021C12.5819 59.4653 16.0544 57.302 20.644 58.3718C38.1778 62.4619 55.7087 66.558 73.2454 70.6481C73.7508 70.7663 74.268 70.8284 74.8827 70.9348C76.118 64.7434 77.1021 58.7057 75.8845 52.5439C74.7645 46.8786 71.3688 43.0781 65.9695 41.3138C61.3178 39.7918 56.5155 38.7279 51.7899 37.4187C47.685 36.2809 43.7692 34.7293 40.6602 31.6736C36.9395 28.0208 35.5682 23.3603 35.2313 18.3392C34.8353 12.4552 35.6835 6.67759 37.0104 0.962034C37.0961 0.592621 37.6192 0.172967 38.0182 0.0695315C38.5649 -0.0752784 39.1855 0.0458891 39.7766 0.0783975C40.1608 0.0990846 40.545 0.161146 41.0503 0.220252C40.5834 2.79137 40.0662 5.27678 39.6939 7.78288C39.091 11.8257 38.8486 15.8804 39.4752 19.9617C40.3824 25.893 43.5623 30.0718 49.207 32.0016C53.6488 33.5206 58.262 34.5491 62.8014 35.7755C66.9063 36.8838 70.8871 38.2757 74.1852 41.0773C78.2429 44.5203 79.9776 49.1187 80.5391 54.2698C81.1893 60.207 80.2672 66.0172 79.1058 71.9957C81.541 72.5868 83.9525 73.1897 86.3729 73.7542C101.277 77.2325 116.186 80.705 131.093 84.1775C135.933 85.3064 138.156 88.776 137.074 93.5961C133.56 109.25 130.038 124.902 126.503 140.553C125.551 144.761 121.955 147.019 117.726 146.035C91.7841 139.985 65.8483 133.915 39.9096 127.851C28.9218 125.283 17.9458 122.664 6.94907 120.152C3.88146 119.452 1.82457 117.83 0.937981 114.786C0.902517 114.664 0.754752 114.579 0.660182 114.475C0.660182 113.491 0.660182 112.51 0.660182 111.526L0.657227 111.523ZM135.203 92.0593C135.239 88.8912 133.773 87.0235 131.184 86.4117C125.076 84.9666 118.964 83.5362 112.849 82.1058C81.9518 74.8801 51.0511 67.6544 20.1504 60.4346C16.74 59.6367 14.3521 61.1557 13.5926 64.5306C10.0935 80.0844 6.59148 95.6382 3.08353 111.189C2.26787 114.812 3.76621 117.209 7.39237 118.057C26.6373 122.564 45.8852 127.074 65.1302 131.578C82.7054 135.691 100.278 139.805 117.856 143.913C121.346 144.729 123.74 143.213 124.517 139.746C127.449 126.678 130.389 113.612 133.321 100.547C133.998 97.5355 134.657 94.5181 135.2 92.0564L135.203 92.0593Z" fill="#06355A"/>
<path d="M90.3537 127.869C90.0611 129.119 89.7626 130.919 89.21 132.639C88.7165 134.172 87.2654 134.725 85.4538 134.305C76.712 132.272 67.9732 130.233 59.2343 128.191C55.6998 127.366 52.1652 126.539 48.6366 125.688C46.6536 125.209 45.8025 123.852 46.2014 121.849C46.4231 120.743 46.7009 119.647 46.958 118.551C47.555 115.985 48.7991 115.19 51.3348 115.782C59.787 117.759 68.2362 119.745 76.6884 121.725C80.3648 122.585 84.0441 123.43 87.7205 124.293C89.5351 124.718 90.333 125.658 90.3566 127.869H90.3537Z" fill="#06355A"/>
<path d="M125.962 123.711C125.658 124.955 125.336 126.746 124.765 128.451C124.278 129.905 122.951 130.511 121.455 130.165C115.876 128.879 110.299 127.576 104.728 126.252C102.926 125.824 102.086 124.615 102.373 122.783C102.606 121.284 102.94 119.795 103.351 118.338C103.836 116.624 105.204 115.852 106.989 116.26C112.572 117.534 118.148 118.834 123.719 120.155C125.235 120.516 125.986 121.592 125.962 123.711Z" fill="#06355A"/>
<path d="M123.308 135.532C122.983 136.847 122.649 138.688 122.055 140.441C121.588 141.821 120.164 142.43 118.666 142.09C114.46 141.135 110.261 140.157 106.073 139.14C104.397 138.732 103.502 137.278 103.818 135.547C104.072 134.149 104.385 132.76 104.761 131.391C105.257 129.58 106.623 128.773 108.449 129.184C112.56 130.112 116.665 131.058 120.767 132.03C122.401 132.417 123.282 133.502 123.311 135.532H123.308Z" fill="#06355A"/>
<path d="M27.1722 100.585C26.8678 101.835 26.5546 103.579 26.0078 105.246C25.5291 106.709 24.1667 107.391 22.559 107.037C18.3004 106.094 14.0566 105.095 9.81867 104.064C8.33511 103.703 7.45147 102.394 7.67608 100.813C7.90364 99.2171 8.25827 97.6242 8.7193 96.0785C9.18919 94.5004 10.5398 93.7409 12.1711 94.1044C16.4267 95.053 20.6735 96.0431 24.9085 97.0804C26.457 97.4586 27.19 98.5551 27.1693 100.585H27.1722Z" fill="#06355A"/>
<path d="M111.839 99.6722C112.122 98.5137 112.433 96.8233 112.959 95.2008C113.446 93.6966 114.797 92.9843 116.357 93.333C120.563 94.2728 124.759 95.257 128.947 96.2706C130.667 96.6873 131.527 97.8931 131.282 99.6544C131.06 101.25 130.702 102.84 130.244 104.383C129.813 105.834 128.338 106.626 126.869 106.295C122.62 105.332 118.376 104.347 114.141 103.316C112.504 102.917 111.786 101.853 111.839 99.6692V99.6722Z" fill="#06355A"/>
<path d="M10.3684 88.5011C10.6521 87.2954 10.9476 85.599 11.4589 83.9677C11.9051 82.5403 13.3887 81.8133 14.9136 82.1502C17.7359 82.7737 20.5523 83.4328 23.3569 84.1391C25.1508 84.5913 25.9871 85.933 25.668 87.8303C25.4315 89.2311 25.1183 90.623 24.7371 91.9913C24.276 93.6463 22.8545 94.4886 21.0754 94.1133C18.2472 93.5163 15.4308 92.8602 12.6262 92.1598C11.0717 91.7726 10.2945 90.5964 10.3654 88.5041L10.3684 88.5011Z" fill="#06355A"/>
<path d="M20.375 111.517C20.0706 112.779 19.7633 114.526 19.2106 116.186C18.7407 117.602 17.5468 118.308 16.0662 118.001C12.9986 117.369 9.93984 116.674 6.91361 115.867C5.50097 115.492 4.72964 114.056 4.98675 112.619C5.25568 111.127 5.58372 109.637 5.99451 108.178C6.45849 106.526 7.84157 105.651 9.49063 106.005C12.4105 106.635 15.3215 107.326 18.2147 108.065C19.6007 108.42 20.3839 109.608 20.378 111.511L20.375 111.517Z" fill="#06355A"/>
<path d="M113.29 112.605C113.568 111.39 113.848 109.741 114.333 108.154C114.776 106.7 116.145 105.926 117.726 106.251C120.651 106.854 123.559 107.542 126.45 108.293C128.105 108.724 128.876 110.028 128.592 111.804C128.362 113.252 128.037 114.694 127.626 116.101C127.141 117.768 125.696 118.598 123.947 118.217C121.172 117.611 118.408 116.949 115.657 116.248C113.94 115.811 113.21 114.75 113.29 112.605Z" fill="#06355A"/>
<path d="M68.4046 94.6482C69.705 94.9792 71.5402 95.3279 73.2927 95.9248C74.6876 96.4006 75.3851 97.8428 75.1132 99.2555C74.8472 100.65 74.5428 102.039 74.1586 103.405C73.6592 105.184 72.2672 106.023 70.4556 105.668C69.0637 105.394 67.6747 105.08 66.3064 104.705C64.3766 104.173 63.5195 102.722 63.9244 100.786C64.1874 99.5392 64.4445 98.2921 64.7667 97.0597C65.1627 95.5348 66.3596 94.6363 68.4046 94.6452V94.6482Z" fill="#06355A"/>
<path d="M32.5391 98.8122C34.0463 99.1934 35.9288 99.554 37.7256 100.163C39.0969 100.63 39.7589 102.072 39.4929 103.523C39.2358 104.918 38.9403 106.31 38.559 107.678C38.1039 109.315 36.579 110.261 34.9269 109.939C33.4877 109.658 32.0573 109.309 30.6447 108.908C28.8006 108.381 27.9465 106.948 28.3248 105.098C28.5996 103.756 28.8804 102.412 29.2468 101.094C29.6488 99.6485 30.689 98.9452 32.5391 98.8122Z" fill="#06355A"/>
<path d="M62.828 96.2618C62.4822 97.6242 62.1335 99.4623 61.5306 101.209C61.0962 102.471 59.589 103.121 58.2295 102.84C56.743 102.536 55.2624 102.19 53.8084 101.767C52.0618 101.262 51.2136 99.7845 51.5712 98.029C51.8165 96.8292 52.0648 95.6293 52.3514 94.4383C52.8479 92.3755 54.3374 91.418 56.4179 91.8436C57.7123 92.1095 59.0038 92.408 60.2805 92.7538C61.8439 93.1764 62.7984 94.3615 62.8309 96.2588L62.828 96.2618Z" fill="#06355A"/>
<path d="M112.143 108.068C111.859 109.274 111.564 110.917 111.07 112.501C110.645 113.867 109.108 114.67 107.625 114.387C106.138 114.103 104.657 113.742 103.203 113.317C101.537 112.829 100.688 111.57 100.943 109.865C101.173 108.319 101.51 106.78 101.953 105.281C102.376 103.857 103.907 103.053 105.503 103.354C106.992 103.635 108.473 103.99 109.927 104.412C111.446 104.85 112.22 106.053 112.14 108.065L112.143 108.068Z" fill="#06355A"/>
<path d="M73.7626 86.0719C73.3962 87.5998 73.0799 89.3404 72.548 91.0102C72.1254 92.343 70.6152 93.1084 69.2144 92.8306C67.6806 92.5262 66.1527 92.1627 64.6514 91.7224C62.9935 91.2348 62.1335 89.7542 62.4645 88.0756C62.7216 86.7811 63.0053 85.4867 63.3363 84.21C63.7944 82.4368 65.1656 81.4911 66.9743 81.8074C68.511 82.0763 70.036 82.4693 71.5373 82.9008C72.9854 83.3175 73.6237 84.4169 73.7656 86.0719H73.7626Z" fill="#06355A"/>
<path d="M50.4482 93.4542C50.1261 94.7545 49.8158 96.5011 49.2513 98.1591C48.7696 99.5806 47.3185 100.24 45.7581 99.9322C44.3662 99.6574 42.9802 99.3294 41.6178 98.9393C39.682 98.3837 38.8545 96.971 39.2565 95.0205C39.5136 93.7734 39.753 92.5203 40.0899 91.2939C40.5982 89.4439 42.0226 88.5573 43.8904 88.9267C45.2823 89.2015 46.6654 89.5355 48.0337 89.9167C49.5882 90.3482 50.4689 91.5333 50.4482 93.4542Z" fill="#06355A"/>
<path d="M82.9241 108.627C81.6444 108.305 79.8092 107.965 78.0626 107.362C76.5672 106.848 75.9289 105.379 76.248 103.756C76.5051 102.462 76.7977 101.171 77.1317 99.8938C77.5779 98.1857 79.0644 97.2606 80.8406 97.6064C82.2325 97.8753 83.6186 98.1945 84.9869 98.5669C86.9108 99.0929 87.756 100.494 87.3718 102.471C87.1176 103.765 86.8339 105.06 86.4822 106.33C86.0626 107.855 85.0105 108.615 82.9241 108.627Z" fill="#06355A"/>
<path d="M38.0862 90.5964C37.7788 91.8465 37.4626 93.5872 36.907 95.2451C36.4253 96.6814 35.0865 97.302 33.4286 97.0124C31.9864 96.7582 30.5531 96.4213 29.1434 96.0253C27.4264 95.5407 26.5546 94.0778 26.8856 92.2928C27.1368 90.9481 27.4175 89.6035 27.7869 88.2854C28.2716 86.5506 29.7699 85.6759 31.5165 86.0482C32.9026 86.3438 34.2916 86.6481 35.654 87.0323C37.2587 87.4875 38.0891 88.5986 38.0891 90.5964H38.0862Z" fill="#06355A"/>
<path d="M38.2517 112.723C39.6495 113.072 41.5291 113.435 43.3348 114.029C44.5642 114.434 45.303 116.015 45.0607 117.298C44.7977 118.69 44.4903 120.079 44.112 121.444C43.6067 123.273 42.1349 124.142 40.2849 123.746C38.8989 123.448 37.5099 123.137 36.1504 122.738C34.3329 122.209 33.4936 120.735 33.8778 118.893C34.1261 117.697 34.3684 116.497 34.661 115.309C35.0718 113.645 36.2066 112.723 38.2546 112.717L38.2517 112.723Z" fill="#06355A"/>
<path d="M28.2509 120.947C26.8797 120.602 24.9971 120.244 23.2033 119.629C21.8645 119.171 21.1996 117.646 21.4714 116.248C21.7226 114.951 21.9975 113.66 22.3255 112.38C22.8368 110.394 24.3174 109.504 26.327 109.948C27.6628 110.243 29.0045 110.533 30.3196 110.911C32.1519 111.44 33.0178 112.897 32.6484 114.732C32.3972 115.98 32.1312 117.224 31.8091 118.453C31.3983 120.031 30.2753 120.915 28.2539 120.944L28.2509 120.947Z" fill="#06355A"/>
<path d="M72.1963 118.678C70.7541 118.311 68.8686 117.96 67.0807 117.333C65.6473 116.831 65.0326 115.374 65.3311 113.825C65.5823 112.528 65.8719 111.236 66.2059 109.96C66.6787 108.151 68.1682 107.235 70.0064 107.616C71.3481 107.894 72.6839 108.201 74.0079 108.556C75.9761 109.085 76.842 110.435 76.4667 112.395C76.2096 113.739 75.92 115.081 75.5594 116.402C75.1634 117.853 74.1143 118.545 72.1993 118.678H72.1963Z" fill="#06355A"/>
<path d="M95.5609 111.585C93.9946 111.192 92.1091 110.843 90.3153 110.226C88.9233 109.747 88.3204 108.29 88.6101 106.682C88.8524 105.335 89.1598 103.993 89.5144 102.672C89.9281 101.123 91.4649 100.133 93.0194 100.435C94.5089 100.721 95.9895 101.073 97.4494 101.493C99.2669 102.016 100.088 103.337 99.7575 105.178C99.5092 106.573 99.1871 107.962 98.8236 109.333C98.4306 110.808 97.3282 111.422 95.5609 111.585Z" fill="#06355A"/>
<path d="M56.7637 89.9551C55.4279 89.6064 53.5897 89.2606 51.852 88.6312C50.4778 88.1317 49.8542 86.8875 50.0877 85.4217C50.3182 83.9766 50.661 82.5403 51.057 81.1276C51.5269 79.4431 52.9632 78.5624 54.6654 78.8993C56.1047 79.183 57.535 79.5229 58.9418 79.9337C60.8745 80.5011 61.6725 81.9315 61.2469 83.8938C60.9868 85.0877 60.7356 86.2876 60.4371 87.4727C60.0352 89.0804 58.8413 89.9965 56.7607 89.9581L56.7637 89.9551Z" fill="#06355A"/>
<path d="M57.4109 104.637C58.7497 104.977 60.6322 105.332 62.4261 105.952C63.8091 106.431 64.4593 107.897 64.1845 109.309C63.9303 110.607 63.6643 111.904 63.3274 113.181C62.8103 115.146 61.4892 116.006 59.4648 115.649C58.0197 115.394 56.5834 115.063 55.1708 114.664C53.5483 114.206 52.6499 112.667 52.972 111.006C53.2203 109.708 53.5099 108.417 53.8261 107.134C54.2162 105.568 55.3422 104.676 57.4109 104.64V104.637Z" fill="#06355A"/>
<path d="M45.1168 101.756C46.4349 102.096 48.3174 102.462 50.1143 103.077C51.453 103.535 52.1209 105.051 51.8431 106.466C51.5771 107.811 51.2875 109.156 50.9329 110.48C50.4482 112.282 48.9528 113.166 47.0939 112.773C45.7522 112.489 44.4105 112.194 43.0895 111.83C41.0947 111.281 40.2524 109.824 40.6927 107.805C40.9528 106.608 41.1774 105.403 41.4907 104.217C41.9133 102.616 43.0097 101.77 45.1198 101.759L45.1168 101.756Z" fill="#06355A"/>
<path d="M79.3304 84.6563C80.6485 84.9932 82.5251 85.3655 84.3249 85.9714C85.5957 86.3999 86.2931 87.8864 86.0419 89.2281C85.7818 90.623 85.4627 92.0091 85.0933 93.3774C84.6204 95.124 83.1871 96.0076 81.3903 95.6618C79.9983 95.3929 78.6152 95.0678 77.2469 94.6954C75.3378 94.1753 74.4453 92.6977 74.8472 90.7915C75.1073 89.5473 75.3703 88.3002 75.6865 87.0708C76.0855 85.5163 77.2292 84.6504 79.3304 84.6563Z" fill="#06355A"/>
<path d="M48.9972 80.5691C48.6928 81.8192 48.3795 83.5599 47.8239 85.2178C47.3481 86.6422 46.0034 87.2747 44.3514 86.991C42.8619 86.7339 41.3784 86.3822 39.9273 85.9596C38.3521 85.5015 37.4744 84.0386 37.7611 82.4339C38.0123 81.039 38.3078 79.647 38.692 78.2846C39.1855 76.5262 40.6396 75.6751 42.4098 76.0475C43.8461 76.3489 45.2794 76.6681 46.692 77.0611C48.1549 77.466 48.9942 78.6363 48.9942 80.572L48.9972 80.5691Z" fill="#06355A"/>
<path d="M88.9086 115.025C88.5982 116.34 88.2879 118.084 87.753 119.753C87.3393 121.048 85.8587 121.748 84.3662 121.482C82.8768 121.216 81.3932 120.868 79.9392 120.442C78.234 119.94 77.3976 118.589 77.6873 116.828C77.9178 115.43 78.234 114.041 78.6034 112.673C79.026 111.109 80.5125 110.146 82.1054 110.444C83.6422 110.731 85.1701 111.1 86.6684 111.544C88.1816 111.993 88.9411 113.122 88.9086 115.028V115.025Z" fill="#06355A"/>
<path d="M110.736 95.053C110.423 96.3415 110.104 98.0881 109.557 99.7549C109.123 101.073 107.725 101.717 106.156 101.442C104.66 101.179 103.174 100.834 101.72 100.399C100.053 99.9027 99.2137 98.4605 99.527 96.7316C99.7634 95.4313 100.071 94.1398 100.396 92.8572C100.857 91.0516 102.355 90.1236 104.199 90.5048C105.639 90.8033 107.078 91.1195 108.493 91.5185C109.921 91.9204 110.772 93.1616 110.736 95.053Z" fill="#06355A"/>
<path d="M93.8676 98.6083C92.5584 98.2832 90.7734 97.9492 89.0622 97.3848C87.5462 96.8824 86.8517 95.449 87.1561 93.8355C87.4013 92.5381 87.688 91.2466 88.0279 89.9699C88.5066 88.1731 89.8631 87.2747 91.6718 87.5968C93.1612 87.8628 94.6448 88.2026 96.1047 88.6134C97.7095 89.0656 98.6492 90.5107 98.3714 92.0889C98.1173 93.5311 97.7804 94.9673 97.3932 96.38C96.9884 97.8517 95.8417 98.6408 93.8676 98.6083Z" fill="#06355A"/>
<path d="M89.9636 119.875C90.2887 118.545 90.6108 116.757 91.1812 115.052C91.6215 113.736 93.0608 113.089 94.5768 113.361C96.019 113.618 97.4523 113.949 98.8591 114.348C100.62 114.848 101.48 116.216 101.179 118.054C100.951 119.452 100.635 120.841 100.251 122.203C99.8107 123.77 98.3212 124.701 96.7253 124.393C95.1915 124.098 93.6636 123.731 92.1653 123.282C90.7556 122.857 90.0227 121.819 89.9606 119.872L89.9636 119.875Z" fill="#06355A"/>
<path d="M95.886 126.208C97.2543 126.554 99.1428 126.911 100.94 127.529C102.299 127.996 102.896 129.358 102.633 130.927C102.397 132.328 102.092 133.723 101.705 135.092C101.253 136.681 99.8077 137.556 98.1705 137.255C96.7253 136.989 95.292 136.646 93.8705 136.265C92.1032 135.789 91.2285 134.551 91.4885 132.751C91.7043 131.25 92.0323 129.751 92.4667 128.297C92.8746 126.932 93.9385 126.276 95.886 126.211V126.208Z" fill="#06355A"/>
<path d="M13.0488 76.5174C13.3414 75.3323 13.6399 73.6389 14.1866 72.0283C14.6713 70.6008 15.9125 70.0127 17.3636 70.2521C18.9979 70.521 20.6292 70.8905 22.2132 71.3751C23.7145 71.8332 24.4799 73.0922 24.2435 74.691C24.016 76.2337 23.6761 77.7734 23.2358 79.2688C22.825 80.6666 21.3059 81.5443 19.8756 81.2724C18.3388 80.9828 16.8109 80.6252 15.3067 80.2026C13.7729 79.7712 12.9838 78.5861 13.0459 76.5174H13.0488Z" fill="#06355A"/>
<path d="M36.6203 77.8354C36.3337 79.0353 36.0322 80.6814 35.5298 82.2654C35.0924 83.6456 33.7685 84.3696 32.2228 84.1154C30.6299 83.8524 29.0429 83.486 27.4944 83.022C25.9812 82.5698 25.1744 81.2872 25.4079 79.718C25.6296 78.2167 25.9576 76.7213 26.3713 75.2614C26.8117 73.698 28.1327 72.8676 29.7847 73.1394C31.3776 73.3995 32.9646 73.7719 34.5132 74.23C35.9613 74.6585 36.6883 75.8672 36.6203 77.8354Z" fill="#06355A"/>
<path d="M88.2791 84.7568C87.026 84.4346 85.1878 84.0829 83.4353 83.4771C81.9577 82.9658 81.2602 81.4143 81.6001 80.0223C81.9784 78.4885 83.258 77.4483 84.8716 77.6818C86.6093 77.933 88.3441 78.3437 90.0138 78.8846C91.456 79.3515 92.2362 80.9503 91.9466 82.3127C91.6422 83.7579 90.3833 84.7508 88.2761 84.7568H88.2791Z" fill="#06355A"/>
<path d="M79.6348 78.8461C79.6348 80.7109 77.9887 82.1679 76.0914 81.8487C74.5044 81.5828 72.9292 81.2074 71.3836 80.7553C69.8321 80.3031 68.9011 78.6511 69.2351 77.203C69.6281 75.5007 71.1383 74.4516 72.8642 74.7856C74.3478 75.0722 75.8254 75.4269 77.2765 75.8436C78.76 76.2691 79.6319 77.4601 79.6319 78.8432L79.6348 78.8461Z" fill="#06355A"/>
<path d="M63.5757 78.985C62.2192 78.6452 60.5228 78.329 58.9004 77.7881C57.2868 77.2503 56.5332 75.6721 56.9499 74.1472C57.3991 72.51 58.8176 71.5938 60.5672 71.9307C62.1069 72.2263 63.6496 72.5573 65.142 73.0301C66.7201 73.5266 67.5535 75.1254 67.2077 76.6474C66.8797 78.0925 65.4523 79.1121 63.5727 78.988L63.5757 78.985Z" fill="#06355A"/>
<path d="M118.612 89.2784C118.645 87.3899 120.27 86.0157 122.215 86.3556C123.71 86.6156 125.197 86.9673 126.654 87.3958C128.504 87.9396 129.367 89.5207 128.891 91.2732C128.465 92.8454 126.831 93.735 125.031 93.339C123.642 93.0316 122.247 92.7331 120.885 92.3312C119.354 91.879 118.586 90.7738 118.609 89.2784H118.612Z" fill="#06355A"/>
<path d="M100.632 87.647C99.3467 87.316 97.4612 86.9614 95.6703 86.329C94.2547 85.8325 93.6016 84.1864 93.968 82.7944C94.3286 81.4202 95.5462 80.3947 97.0445 80.5927C98.8798 80.838 100.712 81.2547 102.47 81.831C103.913 82.3009 104.56 83.8642 104.217 85.3123C103.874 86.7545 102.766 87.6175 100.632 87.647Z" fill="#06355A"/>
<path d="M112.944 90.5373C111.638 90.2034 109.8 89.8458 108.047 89.2459C106.691 88.7819 106.017 87.2303 106.301 85.8591C106.605 84.3785 107.823 83.2673 109.38 83.4771C111.262 83.7313 113.139 84.1923 114.942 84.7893C116.307 85.2414 116.919 86.793 116.594 88.1849C116.245 89.6714 115.063 90.5669 112.947 90.5403L112.944 90.5373Z" fill="#06355A"/>
<path d="M35.9761 66.1206C37.2114 66.4398 39.0023 66.7826 40.7046 67.3766C42.1734 67.8879 42.8058 69.3537 42.4925 70.858C42.1881 72.3061 40.9499 73.3581 39.3629 73.1513C37.5779 72.9178 35.7899 72.5159 34.0788 71.9544C32.5391 71.449 31.8889 69.9241 32.2465 68.3755C32.5745 66.9481 33.8246 66.0615 35.979 66.1265L35.9761 66.1206Z" fill="#06355A"/>
<path d="M48.347 69.0227C49.5439 69.3271 51.2846 69.6699 52.9484 70.2255C54.4792 70.7368 55.1944 72.2617 54.8457 73.7748C54.5177 75.1904 53.2055 76.278 51.6806 76.0652C49.8956 75.814 48.1106 75.4062 46.3965 74.8447C44.8981 74.3541 44.2302 72.7612 44.6026 71.2362C44.9543 69.8 46.1867 68.9429 48.347 69.0257V69.0227Z" fill="#06355A"/>
<path d="M30.1925 67.2141C30.2103 69.1143 28.8006 70.524 26.8826 70.2728C25.1922 70.0512 23.5076 69.6463 21.8734 69.1439C20.2893 68.6563 19.518 67.0722 19.8874 65.5029C20.2273 64.0489 21.6251 62.9821 23.2092 63.2303C24.8966 63.4933 26.5723 63.913 28.2007 64.4243C29.4774 64.8232 30.1778 65.8221 30.1896 67.2141H30.1925Z" fill="#06355A"/>
</svg>
