<svg width="196" height="66" viewBox="0 0 196 66" fill="none" xmlns="http://www.w3.org/2000/svg">
<path d="M67.5841 35.1388C65.7885 35.1388 64.0695 34.8869 62.4271 34.3833C60.7848 33.8577 59.4819 33.1899 58.5184 32.3796L59.9965 29.0621C60.9162 29.7848 62.0549 30.3869 63.4125 30.8687C64.7702 31.3505 66.1607 31.5913 67.5841 31.5913C68.7885 31.5913 69.7629 31.4599 70.5074 31.1972C71.252 30.9344 71.7994 30.584 72.1498 30.1461C72.5001 29.6862 72.6753 29.1716 72.6753 28.6023C72.6753 27.9015 72.4235 27.3432 71.9198 26.9271C71.4162 26.4891 70.7593 26.1497 69.949 25.9088C69.1607 25.6461 68.2739 25.4052 67.2885 25.1862C66.325 24.9672 65.3505 24.7154 64.3651 24.4307C63.4016 24.1242 62.5147 23.741 61.7045 23.2811C60.9162 22.7994 60.2702 22.1643 59.7666 21.376C59.2629 20.5877 59.0111 19.5804 59.0111 18.3541C59.0111 17.1059 59.3396 15.9672 59.9965 14.9381C60.6753 13.887 61.6936 13.0548 63.0512 12.4417C64.4308 11.8067 66.1717 11.4891 68.2739 11.4891C69.6534 11.4891 71.022 11.6643 72.3797 12.0147C73.7374 12.3651 74.9198 12.8687 75.9271 13.5256L74.5804 16.8432C73.5512 16.23 72.4892 15.7811 71.3943 15.4964C70.2994 15.1899 69.2483 15.0366 68.241 15.0366C67.0585 15.0366 66.095 15.1789 65.3505 15.4636C64.6279 15.7483 64.0914 16.1205 63.741 16.5804C63.4125 17.0402 63.2483 17.5658 63.2483 18.157C63.2483 18.8578 63.4892 19.4271 63.9709 19.8651C64.4746 20.2811 65.1206 20.6096 65.9089 20.8505C66.7191 21.0913 67.6169 21.3322 68.6023 21.5731C69.5877 21.7921 70.5622 22.0439 71.5257 22.3286C72.5111 22.6132 73.3979 22.9855 74.1863 23.4453C74.9965 23.9052 75.6425 24.5293 76.1242 25.3176C76.6279 26.1059 76.8797 27.1023 76.8797 28.3067C76.8797 29.5329 76.5403 30.6716 75.8614 31.7227C75.2045 32.7519 74.1863 33.584 72.8067 34.2191C71.4271 34.8322 69.6863 35.1388 67.5841 35.1388ZM84.07 30.9015L84.1686 25.7446L93.3328 17.2702H98.2598L90.4751 25.0877L88.3073 26.8942L84.07 30.9015ZM80.7197 34.8103V10.4381H84.8255V34.8103H80.7197ZM93.9569 34.8103L87.5518 26.8942L90.1467 23.6096L98.9496 34.8103H93.9569ZM102.053 41.4125C101.199 41.4125 100.345 41.2702 99.4905 40.9855C98.6365 40.7008 97.9248 40.3067 97.3555 39.803L98.9978 36.7811C99.4139 37.1534 99.8847 37.449 100.41 37.668C100.936 37.8869 101.472 37.9964 102.02 37.9964C102.764 37.9964 103.366 37.8103 103.826 37.438C104.286 37.0658 104.713 36.4417 105.107 35.5658L106.126 33.2665L106.454 32.7738L113.089 17.2702H117.031L108.819 36.2227C108.272 37.5366 107.658 38.5767 106.98 39.3431C106.323 40.1096 105.578 40.6461 104.746 40.9526C103.936 41.2592 103.038 41.4125 102.053 41.4125ZM105.666 35.4344L97.7497 17.2702H102.02L108.458 32.4125L105.666 35.4344ZM126.539 35.0402C124.853 35.0402 123.331 34.668 121.973 33.9234C120.638 33.157 119.586 32.1059 118.82 30.7702C118.054 29.4344 117.67 27.8578 117.67 26.0402C117.67 24.2227 118.054 22.6461 118.82 21.3103C119.586 19.9745 120.638 18.9344 121.973 18.1899C123.331 17.4453 124.853 17.0731 126.539 17.0731C128.006 17.0731 129.32 17.4016 130.481 18.0585C131.641 18.6935 132.561 19.668 133.24 20.9818C133.919 22.2957 134.258 23.9818 134.258 26.0402C134.258 28.0767 133.93 29.7629 133.273 31.0986C132.616 32.4125 131.707 33.3979 130.546 34.0548C129.386 34.7118 128.05 35.0402 126.539 35.0402ZM127.032 31.5256C128.017 31.5256 128.893 31.3067 129.659 30.8687C130.448 30.4307 131.072 29.7957 131.532 28.9636C132.013 28.1315 132.254 27.157 132.254 26.0402C132.254 24.9015 132.013 23.9271 131.532 23.1169C131.072 22.2848 130.448 21.6497 129.659 21.2118C128.893 20.7738 128.017 20.5548 127.032 20.5548C126.046 20.5548 125.159 20.7738 124.371 21.2118C123.605 21.6497 122.981 22.2848 122.499 23.1169C122.039 23.9271 121.809 24.9015 121.809 26.0402C121.809 27.157 122.039 28.1315 122.499 28.9636C122.981 29.7957 123.605 30.4307 124.371 30.8687C125.159 31.3067 126.046 31.5256 127.032 31.5256ZM132.353 34.8103V30.6716L132.517 26.0074L132.189 21.3432V10.4381H136.262V34.8103H132.353ZM149.549 35.0402C147.753 35.0402 146.155 34.657 144.753 33.8906C143.352 33.1023 142.246 32.0293 141.436 30.6716C140.626 29.314 140.22 27.7702 140.22 26.0402C140.22 24.2884 140.626 22.7446 141.436 21.4089C142.246 20.0512 143.352 18.9891 144.753 18.2227C146.155 17.4563 147.753 17.0731 149.549 17.0731C151.366 17.0731 152.976 17.4563 154.377 18.2227C155.801 18.9891 156.907 20.0402 157.695 21.376C158.505 22.7118 158.91 24.2665 158.91 26.0402C158.91 27.7702 158.505 29.314 157.695 30.6716C156.907 32.0293 155.801 33.1023 154.377 33.8906C152.976 34.657 151.366 35.0402 149.549 35.0402ZM149.549 31.5256C150.556 31.5256 151.454 31.3067 152.242 30.8687C153.031 30.4307 153.644 29.7957 154.082 28.9636C154.542 28.1315 154.772 27.157 154.772 26.0402C154.772 24.9015 154.542 23.9271 154.082 23.1169C153.644 22.2848 153.031 21.6497 152.242 21.2118C151.454 20.7738 150.567 20.5548 149.582 20.5548C148.574 20.5548 147.677 20.7738 146.888 21.2118C146.122 21.6497 145.509 22.2848 145.049 23.1169C144.589 23.9271 144.359 24.9015 144.359 26.0402C144.359 27.157 144.589 28.1315 145.049 28.9636C145.509 29.7957 146.122 30.4307 146.888 30.8687C147.677 31.3067 148.563 31.5256 149.549 31.5256ZM184.975 17.0731C186.377 17.0731 187.614 17.3468 188.687 17.8943C189.782 18.4417 190.636 19.2848 191.249 20.4234C191.862 21.5402 192.169 22.9855 192.169 24.7592V34.8103H188.063V25.2848C188.063 23.73 187.723 22.5694 187.044 21.803C186.366 21.0366 185.391 20.6534 184.121 20.6534C183.223 20.6534 182.424 20.8505 181.723 21.2446C181.044 21.6388 180.508 22.2191 180.114 22.9855C179.742 23.7519 179.555 24.7264 179.555 25.9088V34.8103H175.45V25.2848C175.45 23.73 175.11 22.5694 174.431 21.803C173.752 21.0366 172.778 20.6534 171.508 20.6534C170.61 20.6534 169.811 20.8505 169.11 21.2446C168.431 21.6388 167.895 22.2191 167.501 22.9855C167.128 23.7519 166.942 24.7264 166.942 25.9088V34.8103H162.836V17.2702H166.745V21.9344L166.055 20.5548C166.647 19.4162 167.501 18.5512 168.617 17.9599C169.756 17.3687 171.048 17.0731 172.493 17.0731C174.136 17.0731 175.559 17.4782 176.763 18.2884C177.99 19.0986 178.8 20.3249 179.194 21.9672L177.585 21.4089C178.154 20.095 179.096 19.0439 180.409 18.2556C181.723 17.4672 183.245 17.0731 184.975 17.0731Z" fill="white"/>
<path d="M134.223 44.1346C133.729 44.1346 133.347 44.002 133.075 43.7367C132.804 43.4715 132.668 43.0921 132.668 42.5986V38.1018H133.556V42.5616C133.556 42.8269 133.621 43.0304 133.751 43.1723C133.886 43.3142 134.078 43.3851 134.324 43.3851C134.602 43.3851 134.833 43.308 135.018 43.1538L135.296 43.7923C135.16 43.9095 134.997 43.9958 134.806 44.0513C134.621 44.1069 134.426 44.1346 134.223 44.1346ZM131.835 39.9061V39.1751H134.963V39.9061H131.835ZM138.391 44.1346C137.867 44.1346 137.404 44.0267 137.003 43.8108C136.608 43.5949 136.3 43.2988 136.078 42.9225C135.862 42.5462 135.754 42.1144 135.754 41.6271C135.754 41.1398 135.859 40.708 136.068 40.3317C136.284 39.9554 136.577 39.6624 136.947 39.4527C137.324 39.2368 137.746 39.1288 138.215 39.1288C138.69 39.1288 139.11 39.2337 139.473 39.4434C139.837 39.6532 140.121 39.9493 140.325 40.3317C140.534 40.708 140.639 41.149 140.639 41.6549C140.639 41.6919 140.636 41.7351 140.63 41.7844C140.63 41.8337 140.627 41.88 140.621 41.9232H136.448V41.2847H140.158L139.797 41.5068C139.804 41.1922 139.739 40.9115 139.603 40.6648C139.467 40.4181 139.279 40.2268 139.039 40.0911C138.804 39.9493 138.53 39.8783 138.215 39.8783C137.907 39.8783 137.632 39.9493 137.392 40.0911C137.151 40.2268 136.963 40.4211 136.827 40.6741C136.691 40.9208 136.624 41.2046 136.624 41.5253V41.6734C136.624 42.0003 136.698 42.2933 136.846 42.5524C137 42.8053 137.213 43.0027 137.484 43.1446C137.756 43.2864 138.067 43.3574 138.419 43.3574C138.709 43.3574 138.971 43.308 139.205 43.2093C139.446 43.1106 139.655 42.9626 139.834 42.7652L140.325 43.3389C140.103 43.598 139.825 43.7953 139.492 43.9311C139.165 44.0668 138.798 44.1346 138.391 44.1346ZM144.01 44.1346C143.511 44.1346 143.063 44.0267 142.669 43.8108C142.28 43.5949 141.975 43.2988 141.753 42.9225C141.53 42.5462 141.419 42.1144 141.419 41.6271C141.419 41.1398 141.53 40.708 141.753 40.3317C141.975 39.9554 142.28 39.6624 142.669 39.4527C143.063 39.2368 143.511 39.1288 144.01 39.1288C144.454 39.1288 144.849 39.2183 145.195 39.3972C145.546 39.5699 145.818 39.829 146.009 40.1744L145.333 40.6093C145.173 40.3687 144.976 40.1929 144.741 40.0819C144.513 39.9647 144.266 39.9061 144.001 39.9061C143.68 39.9061 143.393 39.977 143.14 40.1189C142.888 40.2608 142.687 40.4612 142.539 40.7203C142.391 40.9732 142.317 41.2755 142.317 41.6271C142.317 41.9787 142.391 42.2841 142.539 42.5431C142.687 42.8022 142.888 43.0027 143.14 43.1446C143.393 43.2864 143.68 43.3574 144.001 43.3574C144.266 43.3574 144.513 43.3019 144.741 43.1908C144.976 43.0736 145.173 42.8947 145.333 42.6542L146.009 43.0798C145.818 43.4191 145.546 43.6812 145.195 43.8663C144.849 44.0452 144.454 44.1346 144.01 44.1346ZM149.714 39.1288C150.115 39.1288 150.467 39.2059 150.769 39.3602C151.077 39.5144 151.318 39.7488 151.491 40.0634C151.663 40.378 151.75 40.7758 151.75 41.257V44.0791H150.861V41.3588C150.861 40.8838 150.744 40.526 150.51 40.2854C150.282 40.0449 149.958 39.9246 149.538 39.9246C149.224 39.9246 148.949 39.9863 148.715 40.1096C148.48 40.233 148.298 40.415 148.169 40.6556C148.046 40.8961 147.984 41.1953 147.984 41.5531V44.0791H147.096V37.2135H147.984V40.4983L147.808 40.1466C147.968 39.8259 148.215 39.5761 148.548 39.3972C148.881 39.2183 149.27 39.1288 149.714 39.1288ZM156.012 39.1288C156.413 39.1288 156.765 39.2059 157.067 39.3602C157.375 39.5144 157.616 39.7488 157.789 40.0634C157.961 40.378 158.048 40.7758 158.048 41.257V44.0791H157.16V41.3588C157.16 40.8838 157.042 40.526 156.808 40.2854C156.58 40.0449 156.256 39.9246 155.836 39.9246C155.522 39.9246 155.247 39.9863 155.013 40.1096C154.779 40.233 154.597 40.415 154.467 40.6556C154.344 40.8961 154.282 41.1953 154.282 41.5531V44.0791H153.394V39.1751H154.245V40.4983L154.106 40.1466C154.267 39.8259 154.513 39.5761 154.846 39.3972C155.179 39.2183 155.568 39.1288 156.012 39.1288ZM161.792 44.1346C161.299 44.1346 160.861 44.0267 160.478 43.8108C160.096 43.5949 159.794 43.2988 159.571 42.9225C159.349 42.54 159.238 42.1082 159.238 41.6271C159.238 41.1398 159.349 40.708 159.571 40.3317C159.794 39.9554 160.096 39.6624 160.478 39.4527C160.861 39.2368 161.299 39.1288 161.792 39.1288C162.279 39.1288 162.714 39.2368 163.097 39.4527C163.485 39.6624 163.788 39.9554 164.004 40.3317C164.226 40.7018 164.337 41.1336 164.337 41.6271C164.337 42.1144 164.226 42.5462 164.004 42.9225C163.788 43.2988 163.485 43.5949 163.097 43.8108C162.714 44.0267 162.279 44.1346 161.792 44.1346ZM161.792 43.3574C162.107 43.3574 162.387 43.2864 162.634 43.1446C162.887 43.0027 163.084 42.8022 163.226 42.5431C163.368 42.2779 163.439 41.9725 163.439 41.6271C163.439 41.2755 163.368 40.9732 163.226 40.7203C163.084 40.4612 162.887 40.2608 162.634 40.1189C162.387 39.977 162.107 39.9061 161.792 39.9061C161.478 39.9061 161.197 39.977 160.95 40.1189C160.703 40.2608 160.506 40.4612 160.358 40.7203C160.21 40.9732 160.136 41.2755 160.136 41.6271C160.136 41.9725 160.21 42.2779 160.358 42.5431C160.506 42.8022 160.703 43.0027 160.95 43.1446C161.197 43.2864 161.478 43.3574 161.792 43.3574ZM165.565 44.0791V37.2135H166.453V44.0791H165.565ZM170.25 44.1346C169.756 44.1346 169.318 44.0267 168.936 43.8108C168.553 43.5949 168.251 43.2988 168.029 42.9225C167.807 42.54 167.696 42.1082 167.696 41.6271C167.696 41.1398 167.807 40.708 168.029 40.3317C168.251 39.9554 168.553 39.6624 168.936 39.4527C169.318 39.2368 169.756 39.1288 170.25 39.1288C170.737 39.1288 171.172 39.2368 171.554 39.4527C171.943 39.6624 172.245 39.9554 172.461 40.3317C172.683 40.7018 172.794 41.1336 172.794 41.6271C172.794 42.1144 172.683 42.5462 172.461 42.9225C172.245 43.2988 171.943 43.5949 171.554 43.8108C171.172 44.0267 170.737 44.1346 170.25 44.1346ZM170.25 43.3574C170.564 43.3574 170.845 43.2864 171.092 43.1446C171.345 43.0027 171.542 42.8022 171.684 42.5431C171.826 42.2779 171.897 41.9725 171.897 41.6271C171.897 41.2755 171.826 40.9732 171.684 40.7203C171.542 40.4612 171.345 40.2608 171.092 40.1189C170.845 39.977 170.564 39.9061 170.25 39.9061C169.935 39.9061 169.655 39.977 169.408 40.1189C169.161 40.2608 168.964 40.4612 168.816 40.7203C168.668 40.9732 168.594 41.2755 168.594 41.6271C168.594 41.9725 168.668 42.2779 168.816 42.5431C168.964 42.8022 169.161 43.0027 169.408 43.1446C169.655 43.2864 169.935 43.3574 170.25 43.3574ZM176.169 45.9297C175.719 45.9297 175.281 45.8649 174.856 45.7354C174.436 45.612 174.094 45.4331 173.828 45.1987L174.254 44.514C174.482 44.7114 174.763 44.8656 175.096 44.9766C175.429 45.0938 175.778 45.1524 176.142 45.1524C176.722 45.1524 177.147 45.0167 177.419 44.7453C177.69 44.4739 177.826 44.0606 177.826 43.5054V42.4691L177.918 41.4976L177.872 40.5168V39.1751H178.714V43.4129C178.714 44.2765 178.498 44.9119 178.066 45.319C177.634 45.7261 177.002 45.9297 176.169 45.9297ZM176.058 43.8755C175.583 43.8755 175.158 43.7768 174.782 43.5794C174.411 43.3759 174.115 43.0952 173.893 42.7374C173.677 42.3797 173.569 41.9664 173.569 41.4976C173.569 41.0226 173.677 40.6093 173.893 40.2577C174.115 39.8999 174.411 39.6223 174.782 39.4249C175.158 39.2275 175.583 39.1288 176.058 39.1288C176.478 39.1288 176.86 39.2152 177.206 39.3879C177.551 39.5545 177.826 39.8135 178.029 40.1652C178.239 40.5168 178.344 40.9609 178.344 41.4976C178.344 42.0281 178.239 42.4691 178.029 42.8207C177.826 43.1723 177.551 43.4376 177.206 43.6165C176.86 43.7892 176.478 43.8755 176.058 43.8755ZM176.16 43.0983C176.487 43.0983 176.777 43.0304 177.03 42.8947C177.283 42.759 177.48 42.5709 177.622 42.3303C177.77 42.0897 177.844 41.8122 177.844 41.4976C177.844 41.183 177.77 40.9054 177.622 40.6648C177.48 40.4242 177.283 40.2392 177.03 40.1096C176.777 39.9739 176.487 39.9061 176.16 39.9061C175.833 39.9061 175.54 39.9739 175.281 40.1096C175.028 40.2392 174.828 40.4242 174.68 40.6648C174.538 40.9054 174.467 41.183 174.467 41.4976C174.467 41.8122 174.538 42.0897 174.68 42.3303C174.828 42.5709 175.028 42.759 175.281 42.8947C175.54 43.0304 175.833 43.0983 176.16 43.0983ZM180.411 44.0791V39.1751H181.299V44.0791H180.411ZM180.855 38.2313C180.683 38.2313 180.538 38.1758 180.42 38.0648C180.309 37.9537 180.254 37.818 180.254 37.6576C180.254 37.4911 180.309 37.3523 180.42 37.2413C180.538 37.1302 180.683 37.0747 180.855 37.0747C181.028 37.0747 181.17 37.1302 181.281 37.2413C181.398 37.3461 181.457 37.4787 181.457 37.6391C181.457 37.8057 181.401 37.9476 181.29 38.0648C181.179 38.1758 181.034 38.2313 180.855 38.2313ZM185.179 44.1346C184.655 44.1346 184.192 44.0267 183.791 43.8108C183.396 43.5949 183.088 43.2988 182.866 42.9225C182.65 42.5462 182.542 42.1144 182.542 41.6271C182.542 41.1398 182.647 40.708 182.857 40.3317C183.073 39.9554 183.366 39.6624 183.736 39.4527C184.112 39.2368 184.535 39.1288 185.003 39.1288C185.478 39.1288 185.898 39.2337 186.262 39.4434C186.626 39.6532 186.909 39.9493 187.113 40.3317C187.323 40.708 187.428 41.149 187.428 41.6549C187.428 41.6919 187.425 41.7351 187.418 41.7844C187.418 41.8337 187.415 41.88 187.409 41.9232H183.236V41.2847H186.946L186.586 41.5068C186.592 41.1922 186.527 40.9115 186.391 40.6648C186.256 40.4181 186.067 40.2268 185.827 40.0911C185.592 39.9493 185.318 39.8783 185.003 39.8783C184.695 39.8783 184.42 39.9493 184.18 40.0911C183.939 40.2268 183.751 40.4211 183.615 40.6741C183.48 40.9208 183.412 41.2046 183.412 41.5253V41.6734C183.412 42.0003 183.486 42.2933 183.634 42.5524C183.788 42.8053 184.001 43.0027 184.272 43.1446C184.544 43.2864 184.855 43.3574 185.207 43.3574C185.497 43.3574 185.759 43.308 185.993 43.2093C186.234 43.1106 186.444 42.9626 186.623 42.7652L187.113 43.3389C186.891 43.598 186.613 43.7953 186.28 43.9311C185.953 44.0668 185.586 44.1346 185.179 44.1346ZM190.067 44.1346C189.66 44.1346 189.272 44.0791 188.902 43.9681C188.538 43.857 188.251 43.7213 188.041 43.5609L188.411 42.8577C188.621 42.9996 188.88 43.1199 189.188 43.2186C189.497 43.3173 189.811 43.3666 190.132 43.3666C190.546 43.3666 190.842 43.308 191.021 43.1908C191.206 43.0736 191.298 42.9102 191.298 42.7004C191.298 42.5462 191.243 42.4259 191.132 42.3396C191.021 42.2532 190.872 42.1884 190.687 42.1453C190.509 42.1021 190.308 42.0651 190.086 42.0342C189.864 41.9972 189.642 41.954 189.42 41.9047C189.198 41.8492 188.994 41.7751 188.809 41.6826C188.624 41.5839 188.476 41.4513 188.365 41.2847C188.254 41.112 188.198 40.8838 188.198 40.6C188.198 40.3039 188.282 40.0449 188.448 39.8228C188.615 39.6007 188.849 39.4311 189.151 39.3139C189.46 39.1905 189.824 39.1288 190.243 39.1288C190.564 39.1288 190.888 39.1689 191.215 39.2491C191.548 39.3231 191.819 39.4311 192.029 39.573L191.65 40.2762C191.428 40.1281 191.196 40.0264 190.956 39.9708C190.715 39.9153 190.475 39.8876 190.234 39.8876C189.845 39.8876 189.555 39.9523 189.364 40.0819C189.173 40.2052 189.077 40.3656 189.077 40.563C189.077 40.7296 189.133 40.8591 189.244 40.9516C189.361 41.038 189.509 41.1059 189.688 41.1552C189.873 41.2046 190.077 41.2477 190.299 41.2847C190.521 41.3156 190.743 41.3588 190.965 41.4143C191.187 41.4636 191.388 41.5346 191.566 41.6271C191.751 41.7196 191.9 41.8492 192.011 42.0157C192.128 42.1823 192.186 42.4043 192.186 42.6819C192.186 42.978 192.1 43.234 191.927 43.4499C191.755 43.6658 191.511 43.8354 191.196 43.9588C190.882 44.076 190.505 44.1346 190.067 44.1346Z" fill="white"/>
<path d="M30.9505 32.8988C30.9708 32.0996 31.1685 31.318 31.5234 30.61C32.3826 28.769 34.2287 27.4957 36.3672 27.4957C37.9531 27.4957 39.3776 28.1953 40.3585 29.3072C40.6246 29.6096 40.9026 29.902 41.2135 30.1588C42.5721 31.2817 44.3143 31.9568 46.2145 31.9568C49.1894 31.9568 51.779 30.3025 53.1131 27.8641C53.9394 26.3525 54.1693 24.5918 53.8507 22.8986C52.7321 16.9429 47.5038 12.437 41.2237 12.437C39.3877 12.437 37.6421 12.8223 36.0622 13.5151C31.536 15.5032 28.3744 20.0251 28.3744 25.2854C28.3744 25.9445 28.4243 26.5916 28.5197 27.2245L28.6963 28.1572L28.6972 28.1589C28.7563 28.4192 28.8239 28.6777 28.8991 28.932C29.0503 29.4423 29.172 29.962 29.2328 30.49C29.2751 30.8584 29.2987 31.2327 29.2987 31.5977C29.2987 32.2483 29.2371 32.8845 29.1188 33.5012C28.4192 37.1639 25.7366 40.1227 22.2311 41.2186C22.2269 41.2203 22.2219 41.222 22.2168 41.2237C21.5603 41.4281 20.8759 41.5667 20.1696 41.6326C20.1502 41.6343 20.1307 41.636 20.1113 41.6376C19.9634 41.6512 19.8147 41.6605 19.6652 41.6664H19.6626C19.568 41.6706 19.4725 41.6731 19.3771 41.6748H19.3585C19.2106 41.6799 19.0628 41.6816 18.9141 41.6807C30.3481 41.9443 29.679 59.1786 29.5438 65.4689L29.5666 65.4884C29.706 59.0054 30.3481 41.9275 41.783 42.1742C38.2716 42.0981 35.1598 40.4607 33.0983 37.9387C32.7071 37.4596 32.3531 36.9484 32.0413 36.4102H32.0405C30.8584 34.4458 30.9505 32.898 30.9505 32.898V32.8988Z" fill="white"/>
<path d="M11.8954 36.2158C11.8599 36.1415 11.783 36.095 11.7002 36.1001C11.4864 36.1128 11.271 36.1187 11.0538 36.1187C10.6086 36.1187 10.1701 36.0925 9.73918 36.041C4.25323 35.3921 0 30.7248 0 25.0648C0 20.4297 2.85323 16.4604 6.90031 14.8179C6.97804 14.7858 7.02873 14.7106 7.0262 14.6261C7.02282 14.4884 7.02028 14.3506 7.02028 14.2121C7.02028 6.36295 13.3841 0 21.2332 0C27.6714 0 33.1607 4.87424 34.9113 10.7877C34.9434 10.8958 34.8792 11.0074 34.7702 11.0378C34.1957 11.1992 33.6381 11.3994 33.099 11.636C29.0578 13.4111 26.1049 17.2056 25.5186 21.7427C25.4425 22.2995 25.4028 22.8732 25.4028 23.4621C25.4028 24.8426 25.6166 26.1734 26.0128 27.4221C26.1311 27.7956 26.2198 28.1783 26.2646 28.5678L26.2697 28.6117C26.3128 28.9801 26.3364 29.3544 26.3364 29.7194C26.3364 30.37 26.2747 31.0062 26.1565 31.623C25.6487 34.2819 24.0957 36.5699 21.9421 38.0434C20.1881 39.244 18.0277 39.7315 15.9484 39.2896C14.4571 38.9728 12.8273 38.1557 11.8954 36.2158Z" fill="white"/>
</svg>
