<svg width="173" height="58" viewBox="0 0 173 58" fill="none" xmlns="http://www.w3.org/2000/svg">
<path d="M59.7521 30.8397C58.1696 30.8397 56.6546 30.6177 55.2072 30.1738C53.7597 29.7107 52.6114 29.122 51.7623 28.408L53.065 25.4841C53.8755 26.121 54.8791 26.6517 56.0756 27.0763C57.2722 27.5009 58.4977 27.7132 59.7521 27.7132C60.8136 27.7132 61.6724 27.5974 62.3286 27.3658C62.9848 27.1342 63.4673 26.8254 63.776 26.4394C64.0848 26.0342 64.2392 25.5806 64.2392 25.0788C64.2392 24.4613 64.0173 23.9691 63.5734 23.6024C63.1295 23.2165 62.5505 22.9173 61.8365 22.705C61.1417 22.4734 60.3601 22.2612 59.4916 22.0682C58.6424 21.8752 57.7836 21.6532 56.9152 21.4023C56.066 21.1321 55.2844 20.7944 54.5703 20.3891C53.8755 19.9645 53.3062 19.4049 52.8623 18.7101C52.4184 18.0153 52.1965 17.1276 52.1965 16.0468C52.1965 14.9467 52.486 13.9432 53.065 13.0361C53.6632 12.1098 54.5607 11.3764 55.7572 10.836C56.9731 10.2763 58.5073 9.99649 60.3601 9.99649C61.5759 9.99649 62.7821 10.1509 63.9787 10.4597C65.1752 10.7685 66.2174 11.2123 67.1052 11.7913L65.9183 14.7152C65.0112 14.1748 64.0752 13.7791 63.1102 13.5282C62.1453 13.2581 61.2189 13.123 60.3311 13.123C59.289 13.123 58.4398 13.2484 57.7836 13.4993C57.1468 13.7502 56.6739 14.0783 56.3651 14.4836C56.0756 14.8888 55.9309 15.352 55.9309 15.8731C55.9309 16.4907 56.1432 16.9925 56.5678 17.3784C57.0117 17.7451 57.581 18.0346 58.2758 18.2469C58.9898 18.4592 59.7811 18.6715 60.6496 18.8838C61.518 19.0768 62.3768 19.2987 63.226 19.5496C64.0945 19.8005 64.8761 20.1286 65.5709 20.5339C66.2849 20.9392 66.8543 21.4892 67.2789 22.184C67.7227 22.8787 67.9447 23.7568 67.9447 24.8183C67.9447 25.8991 67.6455 26.9026 67.0473 27.829C66.4683 28.736 65.5709 29.4694 64.355 30.0291C63.1392 30.5695 61.6049 30.8397 59.7521 30.8397ZM74.2818 27.1053L74.3686 22.5603L82.4453 15.0915H86.7877L79.9268 21.9813L78.0162 23.5735L74.2818 27.1053ZM71.329 30.5502V9.07013H74.9476V30.5502H71.329ZM82.9954 30.5502L77.3503 23.5735L79.6373 20.6786L87.3956 30.5502H82.9954ZM90.1303 36.3689C89.3777 36.3689 88.625 36.2434 87.8723 35.9926C87.1197 35.7417 86.4924 35.3943 85.9907 34.9504L87.4381 32.2871C87.8048 32.6152 88.2197 32.8757 88.6829 33.0687C89.1461 33.2617 89.6189 33.3582 90.1014 33.3582C90.7576 33.3582 91.2883 33.1942 91.6936 32.8661C92.0989 32.538 92.4752 31.988 92.8226 31.216L93.72 29.1896L94.0095 28.7553L99.8572 15.0915H103.331L96.0938 31.795C95.6113 32.9529 95.071 33.8696 94.4727 34.5451C93.8937 35.2206 93.2375 35.6934 92.5042 35.9636C91.7901 36.2338 90.9988 36.3689 90.1303 36.3689ZM93.3147 31.1002L86.338 15.0915H90.1014L95.7754 28.4369L93.3147 31.1002ZM111.711 30.7528C110.225 30.7528 108.884 30.4247 107.687 29.7686C106.51 29.0931 105.584 28.1667 104.908 26.9895C104.233 25.8122 103.895 24.4227 103.895 22.8208C103.895 21.219 104.233 19.8294 104.908 18.6522C105.584 17.4749 106.51 16.5582 107.687 15.9021C108.884 15.2459 110.225 14.9178 111.711 14.9178C113.004 14.9178 114.162 15.2073 115.185 15.7863C116.208 16.3459 117.018 17.2048 117.617 18.3627C118.215 19.5207 118.514 21.0067 118.514 22.8208C118.514 24.6157 118.225 26.1017 117.646 27.279C117.067 28.4369 116.266 29.3054 115.243 29.8843C114.22 30.4633 113.043 30.7528 111.711 30.7528ZM112.145 27.6553C113.014 27.6553 113.786 27.4623 114.461 27.0763C115.156 26.6903 115.706 26.1306 116.111 25.3973C116.536 24.6639 116.748 23.8051 116.748 22.8208C116.748 21.8173 116.536 20.9585 116.111 20.2444C115.706 19.511 115.156 18.9513 114.461 18.5653C113.786 18.1794 113.014 17.9864 112.145 17.9864C111.277 17.9864 110.495 18.1794 109.8 18.5653C109.125 18.9513 108.575 19.511 108.15 20.2444C107.745 20.9585 107.542 21.8173 107.542 22.8208C107.542 23.8051 107.745 24.6639 108.15 25.3973C108.575 26.1306 109.125 26.6903 109.8 27.0763C110.495 27.4623 111.277 27.6553 112.145 27.6553ZM116.835 30.5502V26.9026L116.98 22.7919L116.69 18.6811V9.07013H120.28V30.5502H116.835ZM131.99 30.7528C130.408 30.7528 128.999 30.4151 127.764 29.7396C126.529 29.0448 125.554 28.0992 124.84 26.9026C124.126 25.7061 123.769 24.3455 123.769 22.8208C123.769 21.2769 124.126 19.9163 124.84 18.739C125.554 17.5425 126.529 16.6065 127.764 15.931C128.999 15.2555 130.408 14.9178 131.99 14.9178C133.592 14.9178 135.011 15.2555 136.246 15.931C137.5 16.6065 138.475 17.5328 139.17 18.7101C139.884 19.8873 140.241 21.2576 140.241 22.8208C140.241 24.3455 139.884 25.7061 139.17 26.9026C138.475 28.0992 137.5 29.0448 136.246 29.7396C135.011 30.4151 133.592 30.7528 131.99 30.7528ZM131.99 27.6553C132.878 27.6553 133.669 27.4623 134.364 27.0763C135.059 26.6903 135.599 26.1306 135.985 25.3973C136.391 24.6639 136.593 23.8051 136.593 22.8208C136.593 21.8173 136.391 20.9585 135.985 20.2444C135.599 19.511 135.059 18.9513 134.364 18.5653C133.669 18.1794 132.888 17.9864 132.019 17.9864C131.132 17.9864 130.34 18.1794 129.646 18.5653C128.97 18.9513 128.43 19.511 128.024 20.2444C127.619 20.9585 127.416 21.8173 127.416 22.8208C127.416 23.8051 127.619 24.6639 128.024 25.3973C128.43 26.1306 128.97 26.6903 129.646 27.0763C130.34 27.4623 131.122 27.6553 131.99 27.6553ZM163.213 14.9178C164.448 14.9178 165.538 15.159 166.484 15.6415C167.449 16.124 168.201 16.867 168.742 17.8706C169.282 18.8548 169.552 20.1286 169.552 21.6918V30.5502H165.934V22.155C165.934 20.7848 165.635 19.7619 165.036 19.0864C164.438 18.411 163.579 18.0732 162.46 18.0732C161.669 18.0732 160.964 18.2469 160.347 18.5943C159.748 18.9417 159.276 19.4531 158.928 20.1286C158.6 20.8041 158.436 21.6629 158.436 22.705V30.5502H154.817V22.155C154.817 20.7848 154.518 19.7619 153.92 19.0864C153.322 18.411 152.463 18.0732 151.344 18.0732C150.552 18.0732 149.848 18.2469 149.23 18.5943C148.632 18.9417 148.159 19.4531 147.812 20.1286C147.484 20.8041 147.32 21.6629 147.32 22.705V30.5502H143.701V15.0915H147.146V19.2022L146.538 17.9864C147.059 16.9828 147.812 16.2205 148.796 15.6994C149.8 15.1783 150.938 14.9178 152.212 14.9178C153.659 14.9178 154.914 15.2748 155.975 15.9889C157.056 16.703 157.77 17.7837 158.118 19.2312L156.699 18.739C157.201 17.5811 158.031 16.6547 159.189 15.96C160.347 15.2652 161.688 14.9178 163.213 14.9178Z" fill="#06355A"/>
<path d="M118.414 39.7507C117.979 39.7507 117.642 39.6338 117.403 39.4001C117.164 39.1663 117.044 38.8319 117.044 38.397V34.4338H117.827V38.3644C117.827 38.5982 117.884 38.7776 117.998 38.9026C118.118 39.0277 118.286 39.0902 118.504 39.0902C118.748 39.0902 118.952 39.0222 119.115 38.8863L119.36 39.449C119.24 39.5523 119.096 39.6284 118.928 39.6773C118.765 39.7263 118.594 39.7507 118.414 39.7507ZM116.31 36.024V35.3797H119.066V36.024H116.31ZM122.088 39.7507C121.626 39.7507 121.218 39.6556 120.865 39.4653C120.517 39.275 120.245 39.0141 120.049 38.6824C119.859 38.3508 119.764 37.9703 119.764 37.5408C119.764 37.1113 119.856 36.7307 120.041 36.3991C120.231 36.0675 120.489 35.8092 120.816 35.6244C121.147 35.4341 121.52 35.339 121.933 35.339C122.351 35.339 122.721 35.4314 123.042 35.6162C123.363 35.8011 123.613 36.062 123.792 36.3991C123.977 36.7307 124.069 37.1194 124.069 37.5652C124.069 37.5978 124.067 37.6359 124.061 37.6794C124.061 37.7229 124.058 37.7637 124.053 37.8017H120.375V37.239H123.645L123.327 37.4348C123.333 37.1575 123.276 36.9101 123.156 36.6927C123.036 36.4752 122.871 36.3067 122.659 36.1871C122.452 36.062 122.21 35.9995 121.933 35.9995C121.661 35.9995 121.419 36.062 121.207 36.1871C120.995 36.3067 120.829 36.4779 120.71 36.7008C120.59 36.9183 120.53 37.1684 120.53 37.4511V37.5815C120.53 37.8697 120.595 38.1279 120.726 38.3562C120.862 38.5791 121.049 38.7531 121.289 38.8782C121.528 39.0032 121.802 39.0657 122.112 39.0657C122.368 39.0657 122.599 39.0222 122.805 38.9352C123.017 38.8483 123.202 38.7178 123.36 38.5438L123.792 39.0494C123.596 39.2777 123.352 39.4517 123.058 39.5713C122.77 39.6909 122.447 39.7507 122.088 39.7507ZM127.04 39.7507C126.6 39.7507 126.206 39.6556 125.858 39.4653C125.515 39.275 125.246 39.0141 125.05 38.6824C124.855 38.3508 124.757 37.9703 124.757 37.5408C124.757 37.1113 124.855 36.7307 125.05 36.3991C125.246 36.0675 125.515 35.8092 125.858 35.6244C126.206 35.4341 126.6 35.339 127.04 35.339C127.432 35.339 127.78 35.4178 128.084 35.5755C128.394 35.7277 128.633 35.956 128.802 36.2605L128.206 36.6437C128.065 36.4317 127.891 36.2768 127.684 36.1789C127.483 36.0756 127.266 36.024 127.032 36.024C126.749 36.024 126.497 36.0865 126.274 36.2115C126.051 36.3366 125.874 36.5133 125.744 36.7416C125.613 36.9645 125.548 37.2309 125.548 37.5408C125.548 37.8506 125.613 38.1198 125.744 38.3481C125.874 38.5764 126.051 38.7531 126.274 38.8782C126.497 39.0032 126.749 39.0657 127.032 39.0657C127.266 39.0657 127.483 39.0168 127.684 38.9189C127.891 38.8156 128.065 38.658 128.206 38.4459L128.802 38.8211C128.633 39.1201 128.394 39.3511 128.084 39.5142C127.78 39.6719 127.432 39.7507 127.04 39.7507ZM132.067 35.339C132.421 35.339 132.731 35.4069 132.997 35.5428C133.269 35.6787 133.481 35.8853 133.633 36.1626C133.785 36.4399 133.861 36.7905 133.861 37.2146V39.7018H133.078V37.3043C133.078 36.8857 132.975 36.5703 132.769 36.3583C132.567 36.1463 132.282 36.0403 131.912 36.0403C131.635 36.0403 131.393 36.0946 131.187 36.2034C130.98 36.3121 130.82 36.4725 130.705 36.6845C130.597 36.8965 130.542 37.1602 130.542 37.4755V39.7018H129.759V33.6509H130.542V36.5459L130.387 36.236C130.529 35.9533 130.746 35.7331 131.04 35.5755C131.333 35.4178 131.676 35.339 132.067 35.339ZM137.618 35.339C137.971 35.339 138.281 35.4069 138.548 35.5428C138.819 35.6787 139.031 35.8853 139.184 36.1626C139.336 36.4399 139.412 36.7905 139.412 37.2146V39.7018H138.629V37.3043C138.629 36.8857 138.526 36.5703 138.319 36.3583C138.118 36.1463 137.833 36.0403 137.463 36.0403C137.186 36.0403 136.944 36.0946 136.737 36.2034C136.531 36.3121 136.37 36.4725 136.256 36.6845C136.147 36.8965 136.093 37.1602 136.093 37.4755V39.7018H135.31V35.3797H136.06V36.5459L135.938 36.236C136.079 35.9533 136.297 35.7331 136.59 35.5755C136.884 35.4178 137.227 35.339 137.618 35.339ZM142.712 39.7507C142.277 39.7507 141.891 39.6556 141.554 39.4653C141.217 39.275 140.951 39.0141 140.755 38.6824C140.559 38.3454 140.461 37.9648 140.461 37.5408C140.461 37.1113 140.559 36.7307 140.755 36.3991C140.951 36.0675 141.217 35.8092 141.554 35.6244C141.891 35.4341 142.277 35.339 142.712 35.339C143.141 35.339 143.525 35.4341 143.862 35.6244C144.204 35.8092 144.471 36.0675 144.661 36.3991C144.857 36.7253 144.955 37.1058 144.955 37.5408C144.955 37.9703 144.857 38.3508 144.661 38.6824C144.471 39.0141 144.204 39.275 143.862 39.4653C143.525 39.6556 143.141 39.7507 142.712 39.7507ZM142.712 39.0657C142.989 39.0657 143.237 39.0032 143.454 38.8782C143.677 38.7531 143.851 38.5764 143.976 38.3481C144.101 38.1143 144.164 37.8452 144.164 37.5408C144.164 37.2309 144.101 36.9645 143.976 36.7416C143.851 36.5133 143.677 36.3366 143.454 36.2115C143.237 36.0865 142.989 36.024 142.712 36.024C142.435 36.024 142.187 36.0865 141.97 36.2115C141.752 36.3366 141.578 36.5133 141.448 36.7416C141.317 36.9645 141.252 37.2309 141.252 37.5408C141.252 37.8452 141.317 38.1143 141.448 38.3481C141.578 38.5764 141.752 38.7531 141.97 38.8782C142.187 39.0032 142.435 39.0657 142.712 39.0657ZM146.037 39.7018V33.6509H146.82V39.7018H146.037ZM150.166 39.7507C149.731 39.7507 149.345 39.6556 149.008 39.4653C148.671 39.275 148.405 39.0141 148.209 38.6824C148.013 38.3454 147.915 37.9648 147.915 37.5408C147.915 37.1113 148.013 36.7307 148.209 36.3991C148.405 36.0675 148.671 35.8092 149.008 35.6244C149.345 35.4341 149.731 35.339 150.166 35.339C150.595 35.339 150.979 35.4341 151.316 35.6244C151.658 35.8092 151.925 36.0675 152.115 36.3991C152.311 36.7253 152.409 37.1058 152.409 37.5408C152.409 37.9703 152.311 38.3508 152.115 38.6824C151.925 39.0141 151.658 39.275 151.316 39.4653C150.979 39.6556 150.595 39.7507 150.166 39.7507ZM150.166 39.0657C150.443 39.0657 150.691 39.0032 150.908 38.8782C151.131 38.7531 151.305 38.5764 151.43 38.3481C151.555 38.1143 151.618 37.8452 151.618 37.5408C151.618 37.2309 151.555 36.9645 151.43 36.7416C151.305 36.5133 151.131 36.3366 150.908 36.2115C150.691 36.0865 150.443 36.024 150.166 36.024C149.889 36.024 149.641 36.0865 149.424 36.2115C149.206 36.3366 149.032 36.5133 148.902 36.7416C148.771 36.9645 148.706 37.2309 148.706 37.5408C148.706 37.8452 148.771 38.1143 148.902 38.3481C149.032 38.5764 149.206 38.7531 149.424 38.8782C149.641 39.0032 149.889 39.0657 150.166 39.0657ZM155.383 41.3328C154.986 41.3328 154.6 41.2757 154.225 41.1615C153.855 41.0528 153.554 40.8951 153.32 40.6885L153.695 40.0851C153.896 40.259 154.144 40.3949 154.437 40.4928C154.731 40.5961 155.038 40.6477 155.359 40.6477C155.87 40.6477 156.245 40.5281 156.484 40.2889C156.723 40.0497 156.843 39.6855 156.843 39.1962V38.2829L156.924 37.4266L156.884 36.5622V35.3797H157.626V39.1146C157.626 39.8758 157.435 40.4357 157.055 40.7945C156.674 41.1533 156.117 41.3328 155.383 41.3328ZM155.285 39.5224C154.867 39.5224 154.492 39.4354 154.16 39.2614C153.834 39.082 153.573 38.8347 153.377 38.5193C153.187 38.204 153.092 37.8398 153.092 37.4266C153.092 37.008 153.187 36.6437 153.377 36.3339C153.573 36.0185 153.834 35.7739 154.16 35.5999C154.492 35.4259 154.867 35.339 155.285 35.339C155.655 35.339 155.992 35.4151 156.296 35.5673C156.601 35.7141 156.843 35.9424 157.022 36.2523C157.207 36.5622 157.3 36.9536 157.3 37.4266C157.3 37.8941 157.207 38.2829 157.022 38.5927C156.843 38.9026 156.601 39.1364 156.296 39.294C155.992 39.4463 155.655 39.5224 155.285 39.5224ZM155.375 38.8374C155.663 38.8374 155.919 38.7776 156.142 38.658C156.364 38.5384 156.538 38.3726 156.663 38.1605C156.794 37.9485 156.859 37.7039 156.859 37.4266C156.859 37.1493 156.794 36.9047 156.663 36.6927C156.538 36.4806 156.364 36.3175 156.142 36.2034C155.919 36.0838 155.663 36.024 155.375 36.024C155.087 36.024 154.829 36.0838 154.6 36.2034C154.377 36.3175 154.201 36.4806 154.07 36.6927C153.945 36.9047 153.883 37.1493 153.883 37.4266C153.883 37.7039 153.945 37.9485 154.07 38.1605C154.201 38.3726 154.377 38.5384 154.6 38.658C154.829 38.7776 155.087 38.8374 155.375 38.8374ZM159.122 39.7018V35.3797H159.904V39.7018H159.122ZM159.513 34.5479C159.361 34.5479 159.233 34.499 159.13 34.4012C159.032 34.3033 158.983 34.1837 158.983 34.0423C158.983 33.8956 159.032 33.7732 159.13 33.6754C159.233 33.5775 159.361 33.5286 159.513 33.5286C159.665 33.5286 159.79 33.5775 159.888 33.6754C159.991 33.7678 160.043 33.8847 160.043 34.026C160.043 34.1728 159.994 34.2979 159.896 34.4012C159.798 34.499 159.671 34.5479 159.513 34.5479ZM163.324 39.7507C162.862 39.7507 162.454 39.6556 162.1 39.4653C161.753 39.275 161.481 39.0141 161.285 38.6824C161.095 38.3508 161 37.9703 161 37.5408C161 37.1113 161.092 36.7307 161.277 36.3991C161.467 36.0675 161.725 35.8092 162.052 35.6244C162.383 35.4341 162.756 35.339 163.169 35.339C163.587 35.339 163.957 35.4314 164.278 35.6162C164.599 35.8011 164.849 36.062 165.028 36.3991C165.213 36.7307 165.305 37.1194 165.305 37.5652C165.305 37.5978 165.303 37.6359 165.297 37.6794C165.297 37.7229 165.294 37.7637 165.289 37.8017H161.611V37.239H164.881L164.563 37.4348C164.569 37.1575 164.512 36.9101 164.392 36.6927C164.272 36.4752 164.107 36.3067 163.895 36.1871C163.688 36.062 163.446 35.9995 163.169 35.9995C162.897 35.9995 162.655 36.062 162.443 36.1871C162.231 36.3067 162.065 36.4779 161.946 36.7008C161.826 36.9183 161.766 37.1684 161.766 37.4511V37.5815C161.766 37.8697 161.831 38.1279 161.962 38.3562C162.098 38.5791 162.285 38.7531 162.525 38.8782C162.764 39.0032 163.038 39.0657 163.348 39.0657C163.604 39.0657 163.835 39.0222 164.041 38.9352C164.253 38.8483 164.438 38.7178 164.596 38.5438L165.028 39.0494C164.832 39.2777 164.588 39.4517 164.294 39.5713C164.006 39.6909 163.683 39.7507 163.324 39.7507ZM167.632 39.7507C167.273 39.7507 166.931 39.7018 166.604 39.6039C166.284 39.5061 166.031 39.3865 165.846 39.2451L166.172 38.6254C166.357 38.7504 166.585 38.8564 166.857 38.9434C167.129 39.0304 167.406 39.0739 167.689 39.0739C168.053 39.0739 168.314 39.0222 168.472 38.9189C168.635 38.8156 168.717 38.6716 168.717 38.4867C168.717 38.3508 168.668 38.2448 168.57 38.1687C168.472 38.0926 168.341 38.0355 168.178 37.9974C168.021 37.9594 167.844 37.9268 167.648 37.8996C167.453 37.867 167.257 37.8289 167.061 37.7854C166.865 37.7365 166.686 37.6712 166.523 37.5897C166.36 37.5027 166.229 37.3858 166.131 37.239C166.034 37.0868 165.985 36.8857 165.985 36.6356C165.985 36.3746 166.058 36.1463 166.205 35.9506C166.352 35.7549 166.558 35.6054 166.825 35.5021C167.096 35.3933 167.417 35.339 167.787 35.339C168.07 35.339 168.355 35.3743 168.643 35.445C168.937 35.5102 169.176 35.6054 169.361 35.7304L169.026 36.3502C168.831 36.2197 168.627 36.13 168.415 36.0811C168.203 36.0321 167.991 36.0077 167.779 36.0077C167.436 36.0077 167.181 36.0647 167.012 36.1789C166.844 36.2876 166.759 36.429 166.759 36.603C166.759 36.7497 166.808 36.8639 166.906 36.9455C167.009 37.0216 167.14 37.0814 167.298 37.1249C167.461 37.1684 167.64 37.2064 167.836 37.239C168.032 37.2662 168.227 37.3043 168.423 37.3532C168.619 37.3967 168.795 37.4592 168.953 37.5408C169.116 37.6223 169.247 37.7365 169.344 37.8833C169.448 38.0301 169.499 38.2258 169.499 38.4704C169.499 38.7314 169.423 38.957 169.271 39.1473C169.119 39.3375 168.904 39.487 168.627 39.5958C168.35 39.6991 168.018 39.7507 167.632 39.7507Z" fill="#06355A"/>
<path d="M27.2777 29.1363C27.2956 28.4318 27.4698 27.7431 27.7826 27.119C28.5399 25.4965 30.1669 24.3743 32.0516 24.3743C33.4493 24.3743 34.7048 24.9909 35.5693 25.9708C35.8038 26.2374 36.0488 26.495 36.3228 26.7214C37.5202 27.711 39.0557 28.306 40.7304 28.306C43.3522 28.306 45.6346 26.848 46.8103 24.699C47.5386 23.3668 47.7411 21.815 47.4604 20.3227C46.4745 15.0738 41.8667 11.1026 36.3318 11.1026C34.7137 11.1026 33.1753 11.4422 31.7828 12.0528C27.7938 13.8049 25.0073 17.7902 25.0073 22.4263C25.0073 23.0072 25.0513 23.5775 25.1354 24.1353L25.291 24.9574L25.2918 24.9588C25.3439 25.1882 25.4035 25.4161 25.4697 25.6402C25.603 26.09 25.7103 26.5479 25.7639 27.0133C25.8011 27.338 25.822 27.6678 25.822 27.9895C25.822 28.5629 25.7676 29.1236 25.6633 29.6672C25.0468 32.8952 22.6826 35.5029 19.5931 36.4687C19.5893 36.4702 19.5849 36.4717 19.5804 36.4732C19.0018 36.6534 18.3987 36.7755 17.7761 36.8336C17.759 36.8351 17.7419 36.8366 17.7248 36.8381C17.5944 36.85 17.4634 36.8582 17.3316 36.8634H17.3294C17.246 36.8671 17.1618 36.8693 17.0777 36.8708H17.0613C16.931 36.8753 16.8007 36.8768 16.6696 36.876C26.7468 37.1084 26.157 52.2975 26.0379 57.8414L26.058 57.8585C26.1809 52.1449 26.7468 37.0935 36.8247 37.3109C33.73 37.2439 30.9875 35.8008 29.1706 33.578C28.8258 33.1558 28.5138 32.7053 28.2391 32.231H28.2383C27.1966 30.4997 27.2777 29.1355 27.2777 29.1355V29.1363Z" fill="#06355A"/>
<path d="M10.4838 32.0597C10.4525 31.9942 10.3847 31.9532 10.3118 31.9577C10.1234 31.9689 9.93348 31.9741 9.74211 31.9741C9.34968 31.9741 8.96322 31.951 8.58345 31.9056C3.74851 31.3337 0 27.2203 0 22.232C0 18.1469 2.51464 14.6486 6.08146 13.201C6.14997 13.1727 6.19465 13.1064 6.19242 13.032C6.18944 12.9106 6.1872 12.7892 6.1872 12.6671C6.1872 5.7494 11.7958 0.141527 18.7135 0.141527C24.3877 0.141527 29.2256 4.43735 30.7685 9.64907C30.7968 9.74439 30.7402 9.84268 30.6441 9.86949C30.1378 10.0117 29.6463 10.1882 29.1712 10.3967C25.6096 11.9612 23.0071 15.3053 22.4903 19.3041C22.4233 19.7948 22.3883 20.3004 22.3883 20.8194C22.3883 22.0361 22.5767 23.2089 22.9259 24.3095C23.0302 24.6386 23.1084 24.976 23.1478 25.3192L23.1523 25.358C23.1903 25.6826 23.2111 26.0125 23.2111 26.3342C23.2111 26.9076 23.1568 27.4683 23.0525 28.0119C22.605 30.3552 21.2364 32.3717 19.3383 33.6704C17.7924 34.7285 15.8884 35.1582 14.0558 34.7687C12.7415 34.4895 11.3051 33.7694 10.4838 32.0597Z" fill="#0A76CA"/>
</svg>
